<svg xmlns="http://www.w3.org/2000/svg" viewBox="0 0 1100 860" width="1100" height="860">
  <style>text { font-family: "Helvetica Neue", Helvetica, Arial, sans-serif; }</style>
  <defs>
    <marker id="arr-blue" markerWidth="10" markerHeight="7" refX="9" refY="3.5" orient="auto"><polygon points="0 0, 10 3.5, 0 7" fill="#2563eb"/></marker>
    <marker id="arr-green" markerWidth="10" markerHeight="7" refX="9" refY="3.5" orient="auto"><polygon points="0 0, 10 3.5, 0 7" fill="#16a34a"/></marker>
    <marker id="arr-orange" markerWidth="10" markerHeight="7" refX="9" refY="3.5" orient="auto"><polygon points="0 0, 10 3.5, 0 7" fill="#ea580c"/></marker>
    <marker id="arr-purple" markerWidth="10" markerHeight="7" refX="9" refY="3.5" orient="auto"><polygon points="0 0, 10 3.5, 0 7" fill="#7c3aed"/></marker>
    <marker id="arr-gray" markerWidth="10" markerHeight="7" refX="9" refY="3.5" orient="auto"><polygon points="0 0, 10 3.5, 0 7" fill="#6b7280"/></marker>
    <marker id="arr-teal" markerWidth="10" markerHeight="7" refX="9" refY="3.5" orient="auto"><polygon points="0 0, 10 3.5, 0 7" fill="#0d9488"/></marker>
  </defs>
  <rect width="1100" height="860" fill="#ffffff"/>
  <text x="550" y="32" text-anchor="middle" font-size="20" font-weight="700" fill="#111827">Portefaix – Scaleway Infrastructure Architecture</text>
  <text x="550" y="52" text-anchor="middle" font-size="12" fill="#6b7280">Kapsule (managed K8s) · LGTM + Cockpit · Private VPC · ESO · Spacelift / Terraform Cloud</text>
  <rect x="20" y="62" width="1060" height="88" rx="6" fill="#eff6ff" fill-opacity="0.5" stroke="#bfdbfe" stroke-width="1" stroke-dasharray="6,4"/>
  <text x="32" y="77" font-size="10" font-weight="600" fill="#2563eb" letter-spacing="0.06em">EXTERNAL</text>
  <rect x="38" y="79" width="130" height="55" rx="8" fill="#fff" stroke="#d1d5db" stroke-width="1.5"/>
  <circle cx="68" cy="99" r="11" fill="#dbeafe" stroke="#bfdbfe" stroke-width="1"/>
  <text x="68" y="103" text-anchor="middle" font-size="10" fill="#2563eb">🌐</text>
  <text x="98" y="97" font-size="12" font-weight="600" fill="#111827">Internet</text>
  <text x="98" y="112" font-size="10" fill="#6b7280">Users / Traffic</text>
  <rect x="188" y="79" width="148" height="55" rx="8" fill="#fff" stroke="#d1d5db" stroke-width="1.5"/>
  <circle cx="218" cy="99" r="11" fill="#f3f4f6" stroke="#d1d5db" stroke-width="1"/>
  <text x="218" y="103" text-anchor="middle" font-size="10" fill="#374151">⚙</text>
  <text x="248" y="97" font-size="12" font-weight="600" fill="#111827">GitHub</text>
  <text x="248" y="112" font-size="10" fill="#6b7280">VCS · Actions</text>
  <rect x="356" y="79" width="155" height="55" rx="8" fill="#fff" stroke="#d1d5db" stroke-width="1.5"/>
  <circle cx="386" cy="99" r="11" fill="#ede9fe" stroke="#c4b5fd" stroke-width="1"/>
  <text x="386" y="103" text-anchor="middle" font-size="10" fill="#7c3aed">TF</text>
  <text x="416" y="97" font-size="12" font-weight="600" fill="#111827">Terraform Cloud</text>
  <text x="416" y="112" font-size="10" fill="#6b7280">IaC Workspaces</text>
  <rect x="531" y="79" width="130" height="55" rx="8" fill="#fff" stroke="#d1d5db" stroke-width="1.5"/>
  <circle cx="561" cy="99" r="11" fill="#faf5ff" stroke="#e9d5ff" stroke-width="1"/>
  <text x="561" y="103" text-anchor="middle" font-size="10" fill="#7c3aed">🚀</text>
  <text x="591" y="97" font-size="12" font-weight="600" fill="#111827">Spacelift</text>
  <text x="591" y="112" font-size="10" fill="#6b7280">OpenTofu stacks</text>
  <rect x="700" y="79" width="155" height="55" rx="8" fill="#fff" stroke="#d1d5db" stroke-width="1.5"/>
  <circle cx="730" cy="99" r="11" fill="#f5f3ff" stroke="#ddd6fe" stroke-width="1"/>
  <text x="730" y="103" text-anchor="middle" font-size="10" fill="#4F0599">SCW</text>
  <text x="760" y="97" font-size="12" font-weight="600" fill="#111827">Scaleway API</text>
  <text x="760" y="112" font-size="10" fill="#6b7280">Control plane</text>
  <rect x="900" y="79" width="160" height="55" rx="8" fill="#fff" stroke="#d1d5db" stroke-width="1.5"/>
  <circle cx="930" cy="99" r="11" fill="#f0fdfa" stroke="#5eead4" stroke-width="1"/>
  <text x="930" y="103" text-anchor="middle" font-size="10" fill="#0d9488">🔐</text>
  <text x="960" y="97" font-size="12" font-weight="600" fill="#111827">Secret Manager</text>
  <text x="960" y="112" font-size="10" fill="#6b7280">Credentials</text>
  <rect x="20" y="163" width="1060" height="88" rx="6" fill="#fef2f2" fill-opacity="0.35" stroke="#fca5a5" stroke-width="1" stroke-dasharray="6,4"/>
  <text x="32" y="178" font-size="10" font-weight="600" fill="#dc2626" letter-spacing="0.06em">PUBLIC EDGE · Scaleway Region</text>
  <rect x="38" y="180" width="165" height="55" rx="8" fill="#fff" stroke="#fca5a5" stroke-width="1.5"/>
  <circle cx="68" cy="200" r="11" fill="#fef2f2" stroke="#fca5a5" stroke-width="1"/>
  <text x="68" y="204" text-anchor="middle" font-size="10" fill="#dc2626">🌐</text>
  <text x="98" y="198" font-size="12" font-weight="600" fill="#111827">Public Gateway</text>
  <text x="98" y="213" font-size="10" fill="#6b7280">VPC-GW-S · NAT</text>
  <rect x="224" y="180" width="148" height="55" rx="8" fill="#fff" stroke="#d1d5db" stroke-width="1.5"/>
  <circle cx="254" cy="200" r="11" fill="#eff6ff" stroke="#bfdbfe" stroke-width="1"/>
  <text x="254" y="204" text-anchor="middle" font-size="10" fill="#2563eb">IP</text>
  <text x="284" y="198" font-size="12" font-weight="600" fill="#111827">Public IP</text>
  <text x="284" y="213" font-size="10" fill="#6b7280">Elastic IP · EIP</text>
  <rect x="392" y="180" width="148" height="55" rx="8" fill="#fff" stroke="#d1d5db" stroke-width="1.5"/>
  <circle cx="422" cy="200" r="11" fill="#f0fdf4" stroke="#bbf7d0" stroke-width="1"/>
  <text x="422" y="204" text-anchor="middle" font-size="10" fill="#16a34a">NAT</text>
  <text x="452" y="198" font-size="12" font-weight="600" fill="#111827">DHCP</text>
  <text x="452" y="213" font-size="10" fill="#6b7280">192.168.1.0/24</text>
  <rect x="570" y="180" width="155" height="55" rx="8" fill="#fff" stroke="#d1d5db" stroke-width="1.5"/>
  <circle cx="600" cy="200" r="11" fill="#fff7ed" stroke="#fed7aa" stroke-width="1"/>
  <text x="600" y="204" text-anchor="middle" font-size="10" fill="#c2410c">🔒</text>
  <text x="630" y="198" font-size="12" font-weight="600" fill="#111827">Cert Manager</text>
  <text x="630" y="213" font-size="10" fill="#6b7280">TLS certificates</text>
  <rect x="756" y="180" width="145" height="55" rx="8" fill="#fff" stroke="#fca5a5" stroke-width="1.5"/>
  <circle cx="786" cy="200" r="11" fill="#fef2f2" stroke="#fca5a5" stroke-width="1"/>
  <text x="786" y="204" text-anchor="middle" font-size="10" fill="#dc2626">🛡</text>
  <text x="816" y="198" font-size="12" font-weight="600" fill="#111827">Network Policy</text>
  <text x="816" y="213" font-size="10" fill="#6b7280">Cilium eBPF</text>
  <rect x="20" y="263" width="1060" height="310" rx="6" fill="#f0fdf4" fill-opacity="0.3" stroke="#86efac" stroke-width="1.5" stroke-dasharray="8,4"/>
  <text x="32" y="279" font-size="10" font-weight="600" fill="#16a34a" letter-spacing="0.06em">SCALEWAY VPC · Private Networks</text>
  <rect x="32" y="287" width="175" height="272" rx="6" fill="#eff6ff" fill-opacity="0.6" stroke="#93c5fd" stroke-width="1" stroke-dasharray="5,3"/>
  <text x="120" y="302" text-anchor="middle" font-size="9" font-weight="600" fill="#1d4ed8">PRIVATE NET</text>
  <text x="120" y="313" text-anchor="middle" font-size="8" fill="#6b7280">{name}</text>
  <rect x="44" y="320" width="151" height="44" rx="5" fill="#fff" stroke="#93c5fd" stroke-width="1"/>
  <text x="120" y="339" text-anchor="middle" font-size="10" font-weight="600" fill="#1d4ed8">Gateway Network</text>
  <text x="120" y="353" text-anchor="middle" font-size="9" fill="#6b7280">GW ↔ PN bridge</text>
  <rect x="44" y="374" width="151" height="44" rx="5" fill="#fff" stroke="#86efac" stroke-width="1"/>
  <text x="120" y="393" text-anchor="middle" font-size="10" font-weight="600" fill="#16a34a">DHCP Subnet</text>
  <text x="120" y="407" text-anchor="middle" font-size="9" fill="#6b7280">192.168.1.0/24</text>
  <rect x="44" y="428" width="151" height="44" rx="5" fill="#fff" stroke="#93c5fd" stroke-width="1"/>
  <text x="120" y="447" text-anchor="middle" font-size="10" font-weight="600" fill="#1d4ed8">App Workloads</text>
  <text x="120" y="461" text-anchor="middle" font-size="9" fill="#6b7280">General services</text>
  <rect x="44" y="482" width="151" height="44" rx="5" fill="#fff" stroke="#93c5fd" stroke-width="1"/>
  <text x="120" y="501" text-anchor="middle" font-size="10" font-weight="600" fill="#1d4ed8">Secret Manager</text>
  <text x="120" y="515" text-anchor="middle" font-size="9" fill="#6b7280">ESO integration</text>
  <rect x="222" y="287" width="540" height="272" rx="8" fill="#faf5ff" fill-opacity="0.6" stroke="#d8b4fe" stroke-width="1.5" stroke-dasharray="5,3"/>
  <text x="492" y="302" text-anchor="middle" font-size="9" font-weight="600" fill="#7c3aed">KAPSULE PRIVATE NET · {name}-kapsule</text>
  <rect x="234" y="310" width="516" height="236" rx="8" fill="#eff6ff" fill-opacity="0.7" stroke="#93c5fd" stroke-width="1.5" stroke-dasharray="4,3"/>
  <text x="492" y="326" text-anchor="middle" font-size="10" font-weight="600" fill="#1d4ed8">KAPSULE CLUSTER · Managed K8s · Scaleway</text>
  <rect x="246" y="334" width="220" height="200" rx="6" fill="#fff" stroke="#93c5fd" stroke-width="1.5"/>
  <text x="356" y="350" text-anchor="middle" font-size="11" font-weight="600" fill="#1d4ed8">Compute</text>
  <rect x="258" y="357" width="196" height="28" rx="4" fill="#eff6ff" stroke="#bfdbfe" stroke-width="1"/>
  <text x="356" y="375" text-anchor="middle" font-size="10" fill="#1d4ed8">Node Pools (autoscale)</text>
  <rect x="258" y="391" width="196" height="28" rx="4" fill="#f0fdf4" stroke="#bbf7d0" stroke-width="1"/>
  <text x="356" y="409" text-anchor="middle" font-size="10" fill="#15803d">Cilium CNI</text>
  <rect x="258" y="425" width="196" height="28" rx="4" fill="#f0fdf4" stroke="#bbf7d0" stroke-width="1"/>
  <text x="356" y="443" text-anchor="middle" font-size="10" fill="#15803d">Autohealing</text>
  <rect x="258" y="459" width="196" height="28" rx="4" fill="#fff7ed" stroke="#fed7aa" stroke-width="1"/>
  <text x="356" y="477" text-anchor="middle" font-size="10" fill="#c2410c">Cluster Autoscaler</text>
  <text x="356" y="510" text-anchor="middle" font-size="9" fill="#6b7280">Auto-upgrade · Maintenance window</text>
  <text x="356" y="523" text-anchor="middle" font-size="9" fill="#6b7280">Feature gates · Admission plugins</text>
  <rect x="480" y="334" width="256" height="200" rx="6" fill="#fff" stroke="#93c5fd" stroke-width="1.5"/>
  <text x="608" y="350" text-anchor="middle" font-size="11" font-weight="600" fill="#1d4ed8">K8s Addons</text>
  <rect x="492" y="357" width="232" height="28" rx="4" fill="#faf5ff" stroke="#e9d5ff" stroke-width="1"/>
  <text x="608" y="375" text-anchor="middle" font-size="10" fill="#7c3aed">External Secrets Operator</text>
  <rect x="492" y="391" width="232" height="28" rx="4" fill="#fff7ed" stroke="#fed7aa" stroke-width="1"/>
  <text x="608" y="409" text-anchor="middle" font-size="10" fill="#c2410c">Cert Manager</text>
  <rect x="492" y="425" width="232" height="28" rx="4" fill="#f0fdf4" stroke="#bbf7d0" stroke-width="1"/>
  <text x="608" y="443" text-anchor="middle" font-size="10" fill="#15803d">Cilium Network Policy</text>
  <rect x="492" y="459" width="232" height="28" rx="4" fill="#eff6ff" stroke="#bfdbfe" stroke-width="1"/>
  <text x="608" y="477" text-anchor="middle" font-size="10" fill="#1d4ed8">Container Registry pull</text>
  <text x="608" y="510" text-anchor="middle" font-size="9" fill="#6b7280">Scaleway provider v2.60.4</text>
  <text x="608" y="523" text-anchor="middle" font-size="9" fill="#6b7280">binpacking autoscaler · random expander</text>
  <rect x="778" y="287" width="290" height="272" rx="8" fill="#fff7ed" fill-opacity="0.6" stroke="#fed7aa" stroke-width="1.5" stroke-dasharray="5,3"/>
  <text x="923" y="303" text-anchor="middle" font-size="10" font-weight="600" fill="#c2410c">OBSERVABILITY (LGTM)</text>
  <rect x="790" y="311" width="266" height="46" rx="6" fill="#fff" stroke="#fed7aa" stroke-width="1"/>
  <circle cx="814" cy="334" r="10" fill="#E6522C" fill-opacity="0.15"/>
  <text x="814" y="338" text-anchor="middle" font-size="10" fill="#E6522C" font-weight="700">P</text>
  <text x="870" y="330" font-size="11" font-weight="600" fill="#111827">Prometheus / Mimir</text>
  <text x="870" y="345" font-size="9" fill="#6b7280">Metrics · Object Storage</text>
  <rect x="790" y="365" width="266" height="46" rx="6" fill="#fff" stroke="#fed7aa" stroke-width="1"/>
  <circle cx="814" cy="388" r="10" fill="#F46800" fill-opacity="0.2"/>
  <text x="814" y="392" text-anchor="middle" font-size="10" fill="#F46800" font-weight="700">L</text>
  <text x="870" y="384" font-size="11" font-weight="600" fill="#111827">Loki</text>
  <text x="870" y="399" font-size="9" fill="#6b7280">Log aggregation · Object Storage</text>
  <rect x="790" y="419" width="266" height="46" rx="6" fill="#fff" stroke="#fed7aa" stroke-width="1"/>
  <circle cx="814" cy="442" r="10" fill="#7c3aed" fill-opacity="0.15"/>
  <text x="814" y="446" text-anchor="middle" font-size="10" fill="#7c3aed" font-weight="700">T</text>
  <text x="870" y="438" font-size="11" font-weight="600" fill="#111827">Tempo</text>
  <text x="870" y="453" font-size="9" fill="#6b7280">Distributed traces · Object Storage</text>
  <rect x="790" y="473" width="266" height="46" rx="6" fill="#fff" stroke="#fed7aa" stroke-width="1"/>
  <circle cx="814" cy="496" r="10" fill="#4F0599" fill-opacity="0.15"/>
  <text x="814" y="500" text-anchor="middle" font-size="9" fill="#4F0599" font-weight="700">SCW</text>
  <text x="870" y="492" font-size="11" font-weight="600" fill="#111827">Scaleway Cockpit</text>
  <text x="870" y="507" font-size="9" fill="#6b7280">Managed dashboard · SaaS</text>
  <text x="923" y="548" text-anchor="middle" font-size="9" fill="#6b7280">nlamirault/observability/scaleway v1.2.2</text>
  <text x="923" y="561" text-anchor="middle" font-size="9" fill="#6b7280">API credentials via ESO</text>
  <rect x="20" y="584" width="1060" height="84" rx="6" fill="#faf5ff" fill-opacity="0.4" stroke="#d8b4fe" stroke-width="1" stroke-dasharray="6,4"/>
  <text x="32" y="599" font-size="10" font-weight="600" fill="#7c3aed" letter-spacing="0.06em">PLATFORM SERVICES</text>
  <rect x="38" y="602" width="175" height="55" rx="8" fill="#fff" stroke="#d1d5db" stroke-width="1.5"/>
  <circle cx="68" cy="622" r="11" fill="#f5f3ff" stroke="#ddd6fe" stroke-width="1"/>
  <text x="68" y="626" text-anchor="middle" font-size="10" fill="#4F0599">SCW</text>
  <text x="98" y="620" font-size="12" font-weight="600" fill="#111827">Container Registry</text>
  <text x="98" y="635" font-size="10" fill="#6b7280">Namespaces · pub/priv</text>
  <rect x="230" y="602" width="165" height="55" rx="8" fill="#fff" stroke="#d1d5db" stroke-width="1.5"/>
  <circle cx="260" cy="622" r="11" fill="#f0fdf4" stroke="#bbf7d0" stroke-width="1"/>
  <text x="260" y="626" text-anchor="middle" font-size="10" fill="#16a34a">OBJ</text>
  <text x="290" y="620" font-size="12" font-weight="600" fill="#111827">Object Storage</text>
  <text x="290" y="635" font-size="10" fill="#6b7280">Mimir·Loki·Tempo buckets</text>
  <rect x="413" y="602" width="155" height="55" rx="8" fill="#fff" stroke="#fca5a5" stroke-width="1.5"/>
  <circle cx="443" cy="622" r="11" fill="#fef2f2" stroke="#fca5a5" stroke-width="1"/>
  <text x="443" y="626" text-anchor="middle" font-size="10" fill="#dc2626">🔑</text>
  <text x="473" y="620" font-size="12" font-weight="600" fill="#111827">Secret Manager</text>
  <text x="473" y="635" font-size="10" fill="#6b7280">ESO · credentials</text>
  <rect x="588" y="602" width="155" height="55" rx="8" fill="#fff" stroke="#d1d5db" stroke-width="1.5"/>
  <circle cx="618" cy="622" r="11" fill="#eff6ff" stroke="#bfdbfe" stroke-width="1"/>
  <text x="618" y="626" text-anchor="middle" font-size="10" fill="#2563eb">🌐</text>
  <text x="648" y="620" font-size="12" font-weight="600" fill="#111827">Scaleway DNS</text>
  <text x="648" y="635" font-size="10" fill="#6b7280">Private zones</text>
  <rect x="763" y="602" width="155" height="55" rx="8" fill="#fff" stroke="#d1d5db" stroke-width="1.5"/>
  <circle cx="793" cy="622" r="11" fill="#fff7ed" stroke="#fed7aa" stroke-width="1"/>
  <text x="793" y="626" text-anchor="middle" font-size="10" fill="#F46800">📊</text>
  <text x="823" y="620" font-size="12" font-weight="600" fill="#111827">Cockpit Metrics</text>
  <text x="823" y="635" font-size="10" fill="#6b7280">Managed Prometheus SaaS</text>
  <rect x="938" y="602" width="132" height="55" rx="8" fill="#fff" stroke="#d1d5db" stroke-width="1.5"/>
  <circle cx="968" cy="622" r="11" fill="#ede9fe" stroke="#c4b5fd" stroke-width="1"/>
  <text x="968" y="626" text-anchor="middle" font-size="10" fill="#7c3aed">TF</text>
  <text x="998" y="620" font-size="12" font-weight="600" fill="#111827">TF State Backend</text>
  <text x="998" y="635" font-size="10" fill="#6b7280">Remote · S3-compat</text>
  <rect x="20" y="678" width="1060" height="88" rx="6" fill="#f0fdfa" fill-opacity="0.5" stroke="#5eead4" stroke-width="1" stroke-dasharray="6,4"/>
  <text x="32" y="693" font-size="10" font-weight="600" fill="#0d9488" letter-spacing="0.06em">CI/CD ORCHESTRATION &amp; IDENTITY</text>
  <rect x="38" y="700" width="228" height="55" rx="8" fill="#fff" stroke="#5eead4" stroke-width="1.5"/>
  <circle cx="68" cy="722" r="11" fill="#faf5ff" stroke="#e9d5ff" stroke-width="1"/>
  <text x="68" y="726" text-anchor="middle" font-size="9" fill="#7c3aed">🚀</text>
  <text x="120" y="719" font-size="12" font-weight="600" fill="#111827">Spacelift Spaces</text>
  <text x="120" y="734" font-size="10" fill="#6b7280">root → project → {env} spaces</text>
  <text x="120" y="748" font-size="10" fill="#6b7280">stacks · contexts · OpenTofu</text>
  <rect x="284" y="700" width="228" height="55" rx="8" fill="#fff" stroke="#5eead4" stroke-width="1.5"/>
  <circle cx="314" cy="722" r="11" fill="#ede9fe" stroke="#c4b5fd" stroke-width="1"/>
  <text x="314" y="726" text-anchor="middle" font-size="9" fill="#7c3aed">TF</text>
  <text x="366" y="719" font-size="12" font-weight="600" fill="#111827">TF Cloud Workspaces</text>
  <text x="366" y="734" font-size="10" fill="#6b7280">VCS · GitHub · per-component</text>
  <text x="366" y="748" font-size="10" fill="#6b7280">auto_apply · trigger prefixes</text>
  <rect x="530" y="700" width="205" height="55" rx="8" fill="#fff" stroke="#5eead4" stroke-width="1.5"/>
  <circle cx="560" cy="722" r="11" fill="#f0fdfa" stroke="#5eead4" stroke-width="1"/>
  <text x="560" y="726" text-anchor="middle" font-size="9" fill="#0d9488">ESO</text>
  <text x="608" y="719" font-size="12" font-weight="600" fill="#111827">Ext. Secrets Operator</text>
  <text x="608" y="734" font-size="10" fill="#6b7280">K8s → Secret Manager</text>
  <text x="608" y="748" font-size="10" fill="#6b7280">nlamirault/eso/scaleway v1.0.0</text>
  <rect x="753" y="700" width="315" height="55" rx="8" fill="#fff" stroke="#5eead4" stroke-width="1.5"/>
  <circle cx="783" cy="722" r="11" fill="#f0fdfa" stroke="#5eead4" stroke-width="1"/>
  <text x="783" y="726" text-anchor="middle" font-size="9" fill="#0d9488">IAM</text>
  <text x="838" y="719" font-size="12" font-weight="600" fill="#111827">Scaleway IAM · API Keys</text>
  <text x="838" y="734" font-size="10" fill="#6b7280">SCW_ACCESS_KEY · SCW_SECRET_KEY</text>
  <text x="838" y="748" font-size="10" fill="#6b7280">SCW_DEFAULT_PROJECT_ID · ORGANIZATION_ID</text>
  <path d="M 103,134 L 103,163" stroke="#ea580c" stroke-width="1.5" fill="none" marker-end="url(#arr-orange)"/>
  <path d="M 120,235 L 120,252 L 120,263" stroke="#2563eb" stroke-width="1.5" fill="none" marker-end="url(#arr-blue)"/>
  <path d="M 180,210 L 370,210 L 370,252 L 492,252 L 492,287" stroke="#2563eb" stroke-width="1.5" fill="none" marker-end="url(#arr-blue)"/>
  <path d="M 262,134 L 262,152 L 367,152 L 367,700" stroke="#7c3aed" stroke-width="1" stroke-dasharray="4,3" fill="none" marker-end="url(#arr-purple)"/>
  <path d="M 433,134 L 433,152 L 398,152 L 398,700" stroke="#7c3aed" stroke-width="1" stroke-dasharray="4,3" fill="none" marker-end="url(#arr-purple)"/>
  <path d="M 596,134 L 596,152 L 152,152 L 152,700" stroke="#7c3aed" stroke-width="1" stroke-dasharray="4,3" fill="none" marker-end="url(#arr-purple)"/>
  <path d="M 777,134 L 777,152 L 492,152 L 492,257 L 492,263" stroke="#4F0599" stroke-width="1" stroke-dasharray="4,3" fill="none" marker-end="url(#arr-purple)"/>
  <path d="M 356,545 L 356,565 L 126,565 L 126,602" stroke="#6b7280" stroke-width="1.5" fill="none" marker-end="url(#arr-gray)"/>
  <path d="M 923,559 L 923,570 L 313,570 L 313,602" stroke="#16a34a" stroke-width="1.5" fill="none" marker-end="url(#arr-green)"/>
  <path d="M 608,678 L 608,665 L 666,665 L 666,657" stroke="#0d9488" stroke-width="1.5" fill="none" marker-end="url(#arr-teal)"/>
  <path d="M 608,534 L 608,545 L 608,562 L 608,678" stroke="#0d9488" stroke-width="1" stroke-dasharray="4,3" fill="none" marker-end="url(#arr-teal)"/>
  <path d="M 960,134 L 960,152 L 120,152" stroke="#0d9488" stroke-width="1" stroke-dasharray="4,3" fill="none" marker-end="url(#arr-teal)"/>
  <path d="M 923,519 L 923,555 L 840,555 L 840,602" stroke="#ea580c" stroke-width="1" stroke-dasharray="4,3" fill="none" marker-end="url(#arr-orange)"/>
  <rect x="20" y="778" width="530" height="68" rx="6" fill="#f9fafb" stroke="#e5e7eb" stroke-width="1"/>
  <text x="32" y="794" font-size="11" font-weight="600" fill="#111827">Legend</text>
  <line x1="32" y1="808" x2="58" y2="808" stroke="#ea580c" stroke-width="1.5" marker-end="url(#arr-orange)"/>
  <text x="64" y="812" font-size="10" fill="#6b7280">Traffic / control</text>
  <line x1="180" y1="808" x2="206" y2="808" stroke="#2563eb" stroke-width="1.5" marker-end="url(#arr-blue)"/>
  <text x="212" y="812" font-size="10" fill="#6b7280">Data / network flow</text>
  <line x1="330" y1="808" x2="356" y2="808" stroke="#16a34a" stroke-width="1.5" marker-end="url(#arr-green)"/>
  <text x="362" y="812" font-size="10" fill="#6b7280">Storage write</text>
  <line x1="440" y1="808" x2="466" y2="808" stroke="#7c3aed" stroke-width="1.5" stroke-dasharray="4,2" marker-end="url(#arr-purple)"/>
  <text x="472" y="812" font-size="10" fill="#6b7280">IaC / OIDC</text>
  <line x1="32" y1="832" x2="58" y2="832" stroke="#0d9488" stroke-width="1.5" marker-end="url(#arr-teal)"/>
  <text x="64" y="836" font-size="10" fill="#6b7280">Secret / identity</text>
  <line x1="180" y1="832" x2="206" y2="832" stroke="#6b7280" stroke-width="1.5" stroke-dasharray="4,2" marker-end="url(#arr-gray)"/>
  <text x="212" y="836" font-size="10" fill="#6b7280">Async / optional</text>
  <rect x="566" y="778" width="514" height="68" rx="6" fill="#f5f3ff" stroke="#ddd6fe" stroke-width="1"/>
  <text x="823" y="794" text-anchor="middle" font-size="11" font-weight="600" fill="#4F0599">Scaleway Platform</text>
  <text x="823" y="810" text-anchor="middle" font-size="10" fill="#6b7280">Region: fr-par / nl-ams · Environment: sandbox</text>
  <text x="823" y="826" text-anchor="middle" font-size="10" fill="#6b7280">Scaleway provider v2.60.4 · nlamirault/kapsule v3.0.4</text>
  <text x="823" y="842" text-anchor="middle" font-size="10" fill="#6b7280">Spacelift v1.35.0 · Terraform Cloud (TFE) v0.70.0</text>
</svg>
