<svg xmlns="http://www.w3.org/2000/svg" viewBox="0 0 1280 980" width="1280" height="980">
  <style>
    text { font-family: "Helvetica Neue", Helvetica, Arial, sans-serif; }
  </style>
  <defs>
    <marker id="arr-blue" markerWidth="10" markerHeight="7" refX="9" refY="3.5" orient="auto"><polygon points="0 0, 10 3.5, 0 7" fill="#2563eb"/></marker>
    <marker id="arr-green" markerWidth="10" markerHeight="7" refX="9" refY="3.5" orient="auto"><polygon points="0 0, 10 3.5, 0 7" fill="#16a34a"/></marker>
    <marker id="arr-orange" markerWidth="10" markerHeight="7" refX="9" refY="3.5" orient="auto"><polygon points="0 0, 10 3.5, 0 7" fill="#ea580c"/></marker>
    <marker id="arr-purple" markerWidth="10" markerHeight="7" refX="9" refY="3.5" orient="auto"><polygon points="0 0, 10 3.5, 0 7" fill="#7c3aed"/></marker>
    <marker id="arr-gray" markerWidth="10" markerHeight="7" refX="9" refY="3.5" orient="auto"><polygon points="0 0, 10 3.5, 0 7" fill="#6b7280"/></marker>
    <marker id="arr-red" markerWidth="10" markerHeight="7" refX="9" refY="3.5" orient="auto"><polygon points="0 0, 10 3.5, 0 7" fill="#dc2626"/></marker>
  </defs>
  <rect width="1280" height="980" fill="#ffffff"/>
  <text x="640" y="32" text-anchor="middle" font-size="20" font-weight="700" fill="#111827">Portefaix – AWS Infrastructure Architecture</text>
  <text x="640" y="52" text-anchor="middle" font-size="12" fill="#6b7280">Multi-account · EKS + Karpenter · LGTM Observability · Org-wide Security Governance</text>
  <rect x="20" y="64" width="1240" height="88" rx="6" fill="#eff6ff" fill-opacity="0.5" stroke="#bfdbfe" stroke-width="1" stroke-dasharray="6,4"/>
  <text x="32" y="79" font-size="10" font-weight="600" fill="#2563eb" letter-spacing="0.06em">EXTERNAL</text>
  <rect x="38" y="82" width="128" height="58" rx="8" fill="#fff" stroke="#d1d5db" stroke-width="1.5"/>
  <circle cx="68" cy="102" r="11" fill="#dbeafe" stroke="#bfdbfe" stroke-width="1"/>
  <text x="68" y="106" text-anchor="middle" font-size="10">🌐</text>
  <text x="104" y="101" font-size="12" font-weight="600" fill="#111827">Internet</text>
  <text x="104" y="116" font-size="10" fill="#6b7280">Users/Traffic</text>
  <rect x="190" y="82" width="148" height="58" rx="8" fill="#fff" stroke="#d1d5db" stroke-width="1.5"/>
  <circle cx="220" cy="102" r="11" fill="#f3f4f6" stroke="#d1d5db" stroke-width="1"/>
  <text x="220" y="106" text-anchor="middle" font-size="10">⚙</text>
  <text x="258" y="101" font-size="12" font-weight="600" fill="#111827">GitHub Actions</text>
  <text x="258" y="116" font-size="10" fill="#6b7280">CI/CD · OIDC</text>
  <rect x="362" y="82" width="148" height="58" rx="8" fill="#fff" stroke="#d1d5db" stroke-width="1.5"/>
  <circle cx="392" cy="102" r="11" fill="#ede9fe" stroke="#c4b5fd" stroke-width="1"/>
  <text x="392" y="106" text-anchor="middle" font-size="10" fill="#7c3aed">TF</text>
  <text x="430" y="101" font-size="12" font-weight="600" fill="#111827">Terraform Cloud</text>
  <text x="430" y="116" font-size="10" fill="#6b7280">IaC Workspaces</text>
  <rect x="534" y="82" width="130" height="58" rx="8" fill="#fff" stroke="#d1d5db" stroke-width="1.5"/>
  <circle cx="564" cy="102" r="11" fill="#faf5ff" stroke="#e9d5ff" stroke-width="1"/>
  <text x="564" y="106" text-anchor="middle" font-size="10" fill="#7c3aed">🚀</text>
  <text x="602" y="101" font-size="12" font-weight="600" fill="#111827">Spacelift</text>
  <text x="602" y="116" font-size="10" fill="#6b7280">IaC Orchestration</text>
  <rect x="1060" y="82" width="180" height="58" rx="8" fill="#fff" stroke="#d1d5db" stroke-width="1.5"/>
  <circle cx="1090" cy="102" r="11" fill="#eff6ff" stroke="#bfdbfe" stroke-width="1"/>
  <text x="1090" y="106" text-anchor="middle" font-size="10">💬</text>
  <text x="1130" y="101" font-size="12" font-weight="600" fill="#111827">Slack / Chatbot</text>
  <text x="1130" y="116" font-size="10" fill="#6b7280">AWS Chatbot · SNS</text>
  <rect x="20" y="166" width="1240" height="88" rx="6" fill="#fef2f2" fill-opacity="0.4" stroke="#fecaca" stroke-width="1" stroke-dasharray="6,4"/>
  <text x="32" y="181" font-size="10" font-weight="600" fill="#dc2626" letter-spacing="0.06em">SECURITY &amp; EDGE</text>
  <rect x="38" y="184" width="128" height="58" rx="8" fill="#fff" stroke="#fca5a5" stroke-width="1.5"/>
  <circle cx="68" cy="204" r="11" fill="#fef2f2" stroke="#fca5a5" stroke-width="1"/>
  <text x="68" y="208" text-anchor="middle" font-size="10">🛡</text>
  <text x="105" y="203" font-size="12" font-weight="600" fill="#111827">AWS WAF v2</text>
  <text x="105" y="218" font-size="10" fill="#6b7280">IP rules · Rate limit</text>
  <rect x="190" y="184" width="148" height="58" rx="8" fill="#fff" stroke="#d1d5db" stroke-width="1.5"/>
  <circle cx="220" cy="204" r="11" fill="#eff6ff" stroke="#bfdbfe" stroke-width="1"/>
  <text x="220" y="208" text-anchor="middle" font-size="9" fill="#2563eb">ALB</text>
  <text x="258" y="203" font-size="12" font-weight="600" fill="#111827">App Load Balancer</text>
  <text x="258" y="218" font-size="10" fill="#6b7280">K8s ALB Controller</text>
  <rect x="362" y="184" width="148" height="58" rx="8" fill="#fff" stroke="#d1d5db" stroke-width="1.5"/>
  <circle cx="392" cy="204" r="11" fill="#eff6ff" stroke="#bfdbfe" stroke-width="1"/>
  <text x="392" y="208" text-anchor="middle" font-size="9" fill="#2563eb">R53</text>
  <text x="430" y="203" font-size="12" font-weight="600" fill="#111827">Route 53</text>
  <text x="430" y="218" font-size="10" fill="#6b7280">External DNS</text>
  <rect x="534" y="184" width="130" height="58" rx="8" fill="#fff" stroke="#d1d5db" stroke-width="1.5"/>
  <circle cx="564" cy="204" r="11" fill="#fff7ed" stroke="#fed7aa" stroke-width="1"/>
  <text x="564" y="208" text-anchor="middle" font-size="10">🔒</text>
  <text x="600" y="203" font-size="12" font-weight="600" fill="#111827">Cert Manager</text>
  <text x="600" y="218" font-size="10" fill="#6b7280">TLS Certificates</text>
  <rect x="688" y="184" width="130" height="58" rx="8" fill="#fff" stroke="#d1d5db" stroke-width="1.5"/>
  <circle cx="718" cy="204" r="11" fill="#f0fdf4" stroke="#bbf7d0" stroke-width="1"/>
  <text x="718" y="208" text-anchor="middle" font-size="9" fill="#16a34a">GW</text>
  <text x="755" y="203" font-size="12" font-weight="600" fill="#111827">Gateway API</text>
  <text x="755" y="218" font-size="10" fill="#6b7280">AWS native K8s</text>
  <rect x="20" y="267" width="1240" height="315" rx="6" fill="#f0fdf4" fill-opacity="0.35" stroke="#86efac" stroke-width="1.5" stroke-dasharray="8,4"/>
  <text x="32" y="283" font-size="10" font-weight="600" fill="#16a34a" letter-spacing="0.06em">AWS VPC  10.0.0.0/16 · 3 Availability Zones</text>
  <rect x="32" y="291" width="190" height="276" rx="6" fill="#dbeafe" fill-opacity="0.5" stroke="#93c5fd" stroke-width="1" stroke-dasharray="5,3"/>
  <text x="127" y="306" text-anchor="middle" font-size="9" font-weight="600" fill="#1d4ed8">PUBLIC SUBNETS</text>
  <text x="127" y="318" text-anchor="middle" font-size="8" fill="#6b7280">10.0.128.0/20 per AZ</text>
  <rect x="46" y="326" width="162" height="50" rx="6" fill="#fff" stroke="#93c5fd" stroke-width="1.5"/>
  <circle cx="76" cy="351" r="10" fill="#dbeafe" stroke="#93c5fd" stroke-width="1"/>
  <text x="76" y="355" text-anchor="middle" font-size="8" fill="#1d4ed8">IGW</text>
  <text x="115" y="349" font-size="11" font-weight="600" fill="#111827">Internet GW</text>
  <text x="115" y="363" font-size="9" fill="#6b7280">Public routing</text>
  <rect x="46" y="388" width="162" height="50" rx="6" fill="#fff" stroke="#93c5fd" stroke-width="1.5"/>
  <circle cx="76" cy="413" r="10" fill="#dbeafe" stroke="#93c5fd" stroke-width="1"/>
  <text x="76" y="417" text-anchor="middle" font-size="8" fill="#1d4ed8">EIP</text>
  <text x="115" y="411" font-size="11" font-weight="600" fill="#111827">Elastic IPs</text>
  <text x="115" y="425" font-size="9" fill="#6b7280">NAT allocation</text>
  <rect x="46" y="450" width="162" height="50" rx="6" fill="#fff" stroke="#93c5fd" stroke-width="1.5"/>
  <circle cx="76" cy="475" r="10" fill="#dbeafe" stroke="#93c5fd" stroke-width="1"/>
  <text x="76" y="479" text-anchor="middle" font-size="8" fill="#1d4ed8">NAT</text>
  <text x="115" y="473" font-size="11" font-weight="600" fill="#111827">NAT Gateways</text>
  <text x="115" y="487" font-size="9" fill="#6b7280">3x (one per AZ)</text>
  <rect x="46" y="512" width="162" height="42" rx="6" fill="#eff6ff" stroke="#93c5fd" stroke-width="1.5"/>
  <text x="127" y="531" text-anchor="middle" font-size="11" font-weight="600" fill="#1d4ed8">ALB Endpoint</text>
  <text x="127" y="546" text-anchor="middle" font-size="9" fill="#6b7280">HTTPS ingress</text>
  <rect x="238" y="291" width="900" height="276" rx="6" fill="#f0fdf4" fill-opacity="0.6" stroke="#86efac" stroke-width="1" stroke-dasharray="5,3"/>
  <text x="688" y="306" text-anchor="middle" font-size="9" font-weight="600" fill="#15803d">PRIVATE SUBNETS  10.0.0.0/19 per AZ</text>
  <rect x="252" y="314" width="500" height="240" rx="8" fill="#eff6ff" fill-opacity="0.7" stroke="#93c5fd" stroke-width="1.5" stroke-dasharray="5,3"/>
  <text x="502" y="330" text-anchor="middle" font-size="10" font-weight="600" fill="#1d4ed8">EKS CLUSTER · Pod Identity · Private API Endpoint</text>
  <rect x="266" y="338" width="210" height="196" rx="6" fill="#fff" stroke="#93c5fd" stroke-width="1.5"/>
  <text x="371" y="355" text-anchor="middle" font-size="11" font-weight="600" fill="#1d4ed8">Compute</text>
  <rect x="278" y="362" width="186" height="32" rx="4" fill="#eff6ff" stroke="#bfdbfe" stroke-width="1"/>
  <text x="371" y="383" text-anchor="middle" font-size="10" fill="#1d4ed8">Fargate Profiles</text>
  <rect x="278" y="402" width="186" height="32" rx="4" fill="#f0fdf4" stroke="#bbf7d0" stroke-width="1"/>
  <text x="371" y="423" text-anchor="middle" font-size="10" fill="#15803d">Karpenter Auto-scaler</text>
  <rect x="278" y="442" width="186" height="30" rx="4" fill="#faf5ff" stroke="#e9d5ff" stroke-width="1"/>
  <text x="371" y="462" text-anchor="middle" font-size="10" fill="#7c3aed">Node Termination Handler</text>
  <text x="371" y="500" text-anchor="middle" font-size="9" fill="#6b7280">EBS/EFS/FSx CSI drivers</text>
  <text x="371" y="515" text-anchor="middle" font-size="9" fill="#6b7280">Secret Store CSI</text>
  <text x="371" y="530" text-anchor="middle" font-size="9" fill="#6b7280">SQS node interrupt</text>
  <rect x="488" y="338" width="250" height="196" rx="6" fill="#fff" stroke="#93c5fd" stroke-width="1.5"/>
  <text x="613" y="355" text-anchor="middle" font-size="11" font-weight="600" fill="#1d4ed8">Kubernetes Addons</text>
  <rect x="500" y="362" width="226" height="28" rx="4" fill="#eff6ff" stroke="#bfdbfe" stroke-width="1"/>
  <text x="613" y="381" text-anchor="middle" font-size="10" fill="#1d4ed8">ALB Ingress Controller</text>
  <rect x="500" y="396" width="226" height="28" rx="4" fill="#f0fdf4" stroke="#bbf7d0" stroke-width="1"/>
  <text x="613" y="415" text-anchor="middle" font-size="10" fill="#15803d">External DNS (Route53)</text>
  <rect x="500" y="430" width="226" height="28" rx="4" fill="#fff7ed" stroke="#fed7aa" stroke-width="1"/>
  <text x="613" y="449" text-anchor="middle" font-size="10" fill="#c2410c">Cert Manager</text>
  <rect x="500" y="464" width="226" height="28" rx="4" fill="#faf5ff" stroke="#e9d5ff" stroke-width="1"/>
  <text x="613" y="483" text-anchor="middle" font-size="10" fill="#7c3aed">External Secrets Operator</text>
  <text x="613" y="516" text-anchor="middle" font-size="9" fill="#6b7280">Gateway API Controller</text>
  <text x="613" y="530" text-anchor="middle" font-size="9" fill="#6b7280">EKS Pod Identity Webhook</text>
  <rect x="754" y="314" width="370" height="240" rx="8" fill="#fff7ed" fill-opacity="0.7" stroke="#fed7aa" stroke-width="1.5" stroke-dasharray="5,3"/>
  <text x="939" y="330" text-anchor="middle" font-size="10" font-weight="600" fill="#c2410c">OBSERVABILITY STACK (LGTM + AMP)</text>
  <rect x="766" y="338" width="162" height="48" rx="6" fill="#fff" stroke="#fed7aa" stroke-width="1"/>
  <circle cx="790" cy="362" r="10" fill="#E6522C" fill-opacity="0.15"/>
  <text x="790" y="366" text-anchor="middle" font-size="10" fill="#E6522C" font-weight="700">P</text>
  <text x="840" y="358" font-size="11" font-weight="600" fill="#111827">Prometheus</text>
  <text x="840" y="373" font-size="9" fill="#6b7280">Metrics · Pod Identity</text>
  <rect x="940" y="338" width="172" height="48" rx="6" fill="#fff" stroke="#fed7aa" stroke-width="1"/>
  <circle cx="964" cy="362" r="10" fill="#E6522C" fill-opacity="0.15"/>
  <text x="964" y="366" text-anchor="middle" font-size="10" fill="#E6522C" font-weight="700">M</text>
  <text x="1014" y="358" font-size="11" font-weight="600" fill="#111827">Mimir</text>
  <text x="1014" y="373" font-size="9" fill="#6b7280">Long-term · S3+KMS</text>
  <rect x="766" y="396" width="162" height="48" rx="6" fill="#fff" stroke="#fed7aa" stroke-width="1"/>
  <circle cx="790" cy="420" r="10" fill="#F46800" fill-opacity="0.2"/>
  <text x="790" y="424" text-anchor="middle" font-size="10" fill="#F46800" font-weight="700">L</text>
  <text x="840" y="416" font-size="11" font-weight="600" fill="#111827">Loki</text>
  <text x="840" y="431" font-size="9" fill="#6b7280">Log Aggregation · S3</text>
  <rect x="940" y="396" width="172" height="48" rx="6" fill="#fff" stroke="#fed7aa" stroke-width="1"/>
  <circle cx="964" cy="420" r="10" fill="#7c3aed" fill-opacity="0.15"/>
  <text x="964" y="424" text-anchor="middle" font-size="10" fill="#7c3aed" font-weight="700">T</text>
  <text x="1014" y="416" font-size="11" font-weight="600" fill="#111827">Tempo</text>
  <text x="1014" y="431" font-size="9" fill="#6b7280">Tracing · S3+KMS</text>
  <rect x="766" y="454" width="162" height="48" rx="6" fill="#fff" stroke="#fed7aa" stroke-width="1"/>
  <circle cx="790" cy="478" r="10" fill="#F46800" fill-opacity="0.2"/>
  <text x="790" y="482" text-anchor="middle" font-size="10" fill="#F46800" font-weight="700">G</text>
  <text x="840" y="474" font-size="11" font-weight="600" fill="#111827">Grafana</text>
  <text x="840" y="489" font-size="9" fill="#6b7280">Dashboards · Pod Id</text>
  <rect x="940" y="454" width="172" height="48" rx="6" fill="#fff" stroke="#fed7aa" stroke-width="1"/>
  <circle cx="964" cy="478" r="10" fill="#FF9900" fill-opacity="0.2"/>
  <text x="964" y="482" text-anchor="middle" font-size="9" fill="#FF9900" font-weight="700">AMP</text>
  <text x="1014" y="474" font-size="11" font-weight="600" fill="#111827">AWS Managed Prom</text>
  <text x="1014" y="489" font-size="9" fill="#6b7280">Managed metrics SaaS</text>
  <rect x="766" y="514" width="346" height="38" rx="6" fill="#fef2f2" stroke="#fca5a5" stroke-width="1"/>
  <text x="939" y="531" text-anchor="middle" font-size="10" fill="#dc2626" font-weight="600">⚡ Fault Injection Simulator (Chaos Engineering)</text>
  <text x="939" y="545" text-anchor="middle" font-size="9" fill="#6b7280">EC2 · ECS · EKS node termination · RDS reboot</text>
  <rect x="20" y="594" width="1240" height="88" rx="6" fill="#faf5ff" fill-opacity="0.4" stroke="#d8b4fe" stroke-width="1" stroke-dasharray="6,4"/>
  <text x="32" y="609" font-size="10" font-weight="600" fill="#7c3aed" letter-spacing="0.06em">PLATFORM SERVICES</text>
  <rect x="38" y="616" width="138" height="55" rx="8" fill="#fff" stroke="#d1d5db" stroke-width="1.5"/>
  <circle cx="68" cy="638" r="11" fill="#fff7ed" stroke="#fed7aa" stroke-width="1"/>
  <text x="68" y="642" text-anchor="middle" font-size="9" fill="#ea580c">ECR</text>
  <text x="108" y="637" font-size="12" font-weight="600" fill="#111827">ECR</text>
  <text x="108" y="652" font-size="10" fill="#6b7280">Container Images</text>
  <rect x="192" y="616" width="155" height="55" rx="8" fill="#fff" stroke="#d1d5db" stroke-width="1.5"/>
  <circle cx="222" cy="638" r="11" fill="#fef2f2" stroke="#fecaca" stroke-width="1"/>
  <text x="222" y="642" text-anchor="middle" font-size="10">🔑</text>
  <text x="262" y="637" font-size="12" font-weight="600" fill="#111827">Secrets Manager</text>
  <text x="262" y="652" font-size="10" fill="#6b7280">App secrets · ESO</text>
  <rect x="363" y="616" width="138" height="55" rx="8" fill="#fff" stroke="#d1d5db" stroke-width="1.5"/>
  <circle cx="393" cy="638" r="11" fill="#f0fdf4" stroke="#bbf7d0" stroke-width="1"/>
  <text x="393" y="642" text-anchor="middle" font-size="9" fill="#16a34a">S3</text>
  <text x="430" y="637" font-size="12" font-weight="600" fill="#111827">S3 Buckets</text>
  <text x="430" y="652" font-size="10" fill="#6b7280">LGTM · CloudTrail</text>
  <rect x="517" y="616" width="130" height="55" rx="8" fill="#fff" stroke="#fca5a5" stroke-width="1.5"/>
  <circle cx="547" cy="638" r="11" fill="#fef2f2" stroke="#fca5a5" stroke-width="1"/>
  <text x="547" y="642" text-anchor="middle" font-size="10">🔒</text>
  <text x="583" y="637" font-size="12" font-weight="600" fill="#111827">AWS KMS</text>
  <text x="583" y="652" font-size="10" fill="#6b7280">Encryption keys</text>
  <rect x="663" y="616" width="148" height="55" rx="8" fill="#fff" stroke="#d1d5db" stroke-width="1.5"/>
  <circle cx="693" cy="638" r="11" fill="#fff7ed" stroke="#fed7aa" stroke-width="1"/>
  <text x="693" y="642" text-anchor="middle" font-size="9" fill="#ea580c">SNS</text>
  <text x="732" y="637" font-size="12" font-weight="600" fill="#111827">SNS + Chatbot</text>
  <text x="732" y="652" font-size="10" fill="#6b7280">Alert routing · Slack</text>
  <rect x="827" y="616" width="130" height="55" rx="8" fill="#fff" stroke="#d1d5db" stroke-width="1.5"/>
  <circle cx="857" cy="638" r="11" fill="#fff7ed" stroke="#fed7aa" stroke-width="1"/>
  <text x="857" y="642" text-anchor="middle" font-size="9" fill="#ea580c">SQS</text>
  <text x="893" y="637" font-size="12" font-weight="600" fill="#111827">SQS Queue</text>
  <text x="893" y="652" font-size="10" fill="#6b7280">Karpenter interrupts</text>
  <rect x="20" y="695" width="1240" height="88" rx="6" fill="#fef2f2" fill-opacity="0.3" stroke="#fca5a5" stroke-width="1" stroke-dasharray="6,4"/>
  <text x="32" y="710" font-size="10" font-weight="600" fill="#dc2626" letter-spacing="0.06em">SECURITY &amp; GOVERNANCE · Audit Account (Delegated Admin)</text>
  <rect x="38" y="716" width="130" height="55" rx="8" fill="#fff" stroke="#fca5a5" stroke-width="1.5"/>
  <circle cx="68" cy="738" r="11" fill="#fef2f2" stroke="#fca5a5" stroke-width="1"/>
  <text x="68" y="742" text-anchor="middle" font-size="10">🔍</text>
  <text x="107" y="737" font-size="12" font-weight="600" fill="#111827">GuardDuty</text>
  <text x="107" y="752" font-size="10" fill="#6b7280">Threat detection</text>
  <rect x="184" y="716" width="145" height="55" rx="8" fill="#fff" stroke="#fca5a5" stroke-width="1.5"/>
  <circle cx="214" cy="738" r="11" fill="#fef2f2" stroke="#fca5a5" stroke-width="1"/>
  <text x="214" y="742" text-anchor="middle" font-size="10">🏛</text>
  <text x="252" y="737" font-size="12" font-weight="600" fill="#111827">Security Hub</text>
  <text x="252" y="752" font-size="10" fill="#6b7280">CIS · PCI · FSBP</text>
  <rect x="345" y="716" width="130" height="55" rx="8" fill="#fff" stroke="#fca5a5" stroke-width="1.5"/>
  <circle cx="375" cy="738" r="11" fill="#fef2f2" stroke="#fca5a5" stroke-width="1"/>
  <text x="375" y="742" text-anchor="middle" font-size="10">📋</text>
  <text x="413" y="737" font-size="12" font-weight="600" fill="#111827">CloudTrail</text>
  <text x="413" y="752" font-size="10" fill="#6b7280">Org audit logs · S3</text>
  <rect x="491" y="716" width="130" height="55" rx="8" fill="#fff" stroke="#fca5a5" stroke-width="1.5"/>
  <circle cx="521" cy="738" r="11" fill="#fef2f2" stroke="#fca5a5" stroke-width="1"/>
  <text x="521" y="742" text-anchor="middle" font-size="10">⚖</text>
  <text x="558" y="737" font-size="12" font-weight="600" fill="#111827">AWS Config</text>
  <text x="558" y="752" font-size="10" fill="#6b7280">Compliance rules</text>
  <rect x="637" y="716" width="148" height="55" rx="8" fill="#fff" stroke="#fca5a5" stroke-width="1.5"/>
  <circle cx="667" cy="738" r="11" fill="#fef2f2" stroke="#fca5a5" stroke-width="1"/>
  <text x="667" y="742" text-anchor="middle" font-size="10">🔬</text>
  <text x="705" y="737" font-size="12" font-weight="600" fill="#111827">Access Analyzer</text>
  <text x="705" y="752" font-size="10" fill="#6b7280">Cross-account access</text>
  <rect x="801" y="716" width="148" height="55" rx="8" fill="#fff" stroke="#d1d5db" stroke-width="1.5"/>
  <circle cx="831" cy="738" r="11" fill="#eff6ff" stroke="#bfdbfe" stroke-width="1"/>
  <text x="831" y="742" text-anchor="middle" font-size="10">📢</text>
  <text x="869" y="737" font-size="12" font-weight="600" fill="#111827">EventBridge</text>
  <text x="869" y="752" font-size="10" fill="#6b7280">Alert notifications</text>
  <rect x="20" y="796" width="1240" height="88" rx="6" fill="#f0fdfa" fill-opacity="0.5" stroke="#5eead4" stroke-width="1" stroke-dasharray="6,4"/>
  <text x="32" y="811" font-size="10" font-weight="600" fill="#0d9488" letter-spacing="0.06em">IDENTITY &amp; ACCESS · AWS ORGANIZATION</text>
  <rect x="38" y="816" width="155" height="55" rx="8" fill="#fff" stroke="#5eead4" stroke-width="1.5"/>
  <circle cx="68" cy="838" r="11" fill="#f0fdfa" stroke="#5eead4" stroke-width="1"/>
  <text x="68" y="842" text-anchor="middle" font-size="9" fill="#0d9488">GH</text>
  <text x="110" y="837" font-size="12" font-weight="600" fill="#111827">OIDC GitHub</text>
  <text x="110" y="852" font-size="10" fill="#6b7280">Actions federation</text>
  <rect x="209" y="816" width="155" height="55" rx="8" fill="#fff" stroke="#5eead4" stroke-width="1.5"/>
  <circle cx="239" cy="838" r="11" fill="#f0fdfa" stroke="#5eead4" stroke-width="1"/>
  <text x="239" y="842" text-anchor="middle" font-size="9" fill="#0d9488">TF</text>
  <text x="280" y="837" font-size="12" font-weight="600" fill="#111827">OIDC TF Cloud</text>
  <text x="280" y="852" font-size="10" fill="#6b7280">IaC federation</text>
  <rect x="380" y="816" width="165" height="55" rx="8" fill="#fff" stroke="#5eead4" stroke-width="1.5"/>
  <circle cx="410" cy="838" r="11" fill="#f0fdfa" stroke="#5eead4" stroke-width="1"/>
  <text x="410" y="842" text-anchor="middle" font-size="9" fill="#0d9488">IAM</text>
  <text x="452" y="837" font-size="12" font-weight="600" fill="#111827">IAM Groups</text>
  <text x="452" y="852" font-size="10" fill="#6b7280">SRE · Dev · Billing · MFA</text>
  <rect x="561" y="816" width="155" height="55" rx="8" fill="#fff" stroke="#5eead4" stroke-width="1.5"/>
  <circle cx="591" cy="838" r="11" fill="#f0fdfa" stroke="#5eead4" stroke-width="1"/>
  <text x="591" y="842" text-anchor="middle" font-size="9" fill="#0d9488">SCP</text>
  <text x="632" y="837" font-size="12" font-weight="600" fill="#111827">Service Control Policies</text>
  <text x="632" y="852" font-size="10" fill="#6b7280">Deny root · Deny leave org</text>
  <rect x="732" y="816" width="516" height="55" rx="8" fill="#fff" stroke="#5eead4" stroke-width="1.5"/>
  <circle cx="762" cy="838" r="11" fill="#f0fdfa" stroke="#5eead4" stroke-width="1"/>
  <text x="762" y="842" text-anchor="middle" font-size="9" fill="#0d9488">ORG</text>
  <text x="810" y="834" font-size="12" font-weight="600" fill="#111827">AWS Organization Accounts</text>
  <text x="810" y="849" font-size="10" fill="#6b7280">root · audit · network · logging · shared · core-dev · core-staging · core-prod</text>
  <text x="810" y="864" font-size="10" fill="#6b7280">Budget alerts · Account password policy · IAM SRE role assumption</text>
  <!-- === ARROWS === -->
  <path d="M 102,140 L 102,184" stroke="#ea580c" stroke-width="1.5" fill="none" marker-end="url(#arr-orange)"/>
  <path d="M 166,213 L 190,213" stroke="#dc2626" stroke-width="1.5" fill="none" marker-end="url(#arr-red)"/>
  <path d="M 338,213 L 362,213" stroke="#2563eb" stroke-width="1.5" fill="none" marker-end="url(#arr-blue)"/>
  <path d="M 264,242 L 264,267 L 502,267 L 502,314" stroke="#2563eb" stroke-width="1.5" fill="none" marker-end="url(#arr-blue)"/>
  <path d="M 127,450 L 127,390 L 127,326" stroke="#16a34a" stroke-width="1" stroke-dasharray="4,3" fill="none" marker-end="url(#arr-green)"/>
  <path d="M 264,140 L 264,152 L 115,152 L 115,816" stroke="#7c3aed" stroke-width="1" stroke-dasharray="4,3" fill="none" marker-end="url(#arr-purple)"/>
  <path d="M 436,140 L 436,152 L 286,152 L 286,816" stroke="#7c3aed" stroke-width="1" stroke-dasharray="4,3" fill="none" marker-end="url(#arr-purple)"/>
  <path d="M 599,140 L 599,152 L 436,152" stroke="#7c3aed" stroke-width="0.8" stroke-dasharray="3,3" fill="none" marker-end="url(#arr-purple)"/>
  <path d="M 371,554 L 371,575 L 107,575 L 107,616" stroke="#6b7280" stroke-width="1.5" fill="none" marker-end="url(#arr-gray)"/>
  <path d="M 502,554 L 502,575 L 270,575 L 270,616" stroke="#6b7280" stroke-width="1.5" fill="none" marker-end="url(#arr-gray)"/>
  <path d="M 900,554 L 900,575 L 432,575 L 432,616" stroke="#16a34a" stroke-width="1.5" fill="none" marker-end="url(#arr-green)"/>
  <path d="M 371,554 L 371,570 L 857,570 L 857,616" stroke="#ea580c" stroke-width="1" stroke-dasharray="4,3" fill="none" marker-end="url(#arr-orange)"/>
  <path d="M 900,554 L 900,570 L 737,570 L 737,616" stroke="#ea580c" stroke-width="1" stroke-dasharray="4,3" fill="none" marker-end="url(#arr-orange)"/>
  <path d="M 737,616 L 737,600 L 1150,600 L 1150,140" stroke="#ea580c" stroke-width="1" stroke-dasharray="4,3" fill="none" marker-end="url(#arr-orange)"/>
  <path d="M 115,816 L 115,760 L 420,760 L 420,554" stroke="#0d9488" stroke-width="1.5" fill="none" marker-end="url(#arr-blue)"/>
  <path d="M 410,771 L 410,784 L 432,784 L 432,671" stroke="#dc2626" stroke-width="1" stroke-dasharray="4,3" fill="none" marker-end="url(#arr-red)"/>
  <path d="M 801,743 L 811,743 L 811,680 L 737,680 L 737,671" stroke="#ea580c" stroke-width="1" stroke-dasharray="4,3" fill="none" marker-end="url(#arr-orange)"/>
  <rect x="20" y="898" width="590" height="72" rx="6" fill="#f9fafb" stroke="#e5e7eb" stroke-width="1"/>
  <text x="32" y="914" font-size="11" font-weight="600" fill="#111827">Legend</text>
  <line x1="32" y1="927" x2="60" y2="927" stroke="#ea580c" stroke-width="1.5" marker-end="url(#arr-orange)"/>
  <text x="66" y="931" font-size="10" fill="#6b7280">Traffic / control</text>
  <line x1="180" y1="927" x2="208" y2="927" stroke="#2563eb" stroke-width="1.5" marker-end="url(#arr-blue)"/>
  <text x="214" y="931" font-size="10" fill="#6b7280">Data / request flow</text>
  <line x1="340" y1="927" x2="368" y2="927" stroke="#16a34a" stroke-width="1.5" marker-end="url(#arr-green)"/>
  <text x="374" y="931" font-size="10" fill="#6b7280">Storage read/write</text>
  <line x1="490" y1="927" x2="518" y2="927" stroke="#7c3aed" stroke-width="1.5" stroke-dasharray="4,2" marker-end="url(#arr-purple)"/>
  <text x="524" y="931" font-size="10" fill="#6b7280">OIDC federation</text>
  <line x1="32" y1="951" x2="60" y2="951" stroke="#6b7280" stroke-width="1.5" stroke-dasharray="4,2" marker-end="url(#arr-gray)"/>
  <text x="66" y="955" font-size="10" fill="#6b7280">Async / optional</text>
  <line x1="180" y1="951" x2="208" y2="951" stroke="#dc2626" stroke-width="1.5" marker-end="url(#arr-red)"/>
  <text x="214" y="955" font-size="10" fill="#6b7280">Security enforcement</text>
  <rect x="626" y="898" width="634" height="72" rx="6" fill="#eff6ff" stroke="#bfdbfe" stroke-width="1"/>
  <text x="943" y="914" text-anchor="middle" font-size="11" font-weight="600" fill="#1d4ed8">Multi-Account Architecture</text>
  <text x="943" y="930" text-anchor="middle" font-size="10" fill="#6b7280">root · audit (GuardDuty/SecurityHub/Config/CloudTrail admin)</text>
  <text x="943" y="946" text-anchor="middle" font-size="10" fill="#6b7280">network · shared · logging · core-dev · core-staging · core-prod</text>
  <text x="943" y="962" text-anchor="middle" font-size="10" fill="#6b7280">Terraform 1.0+ · AWS Provider v6.17 · Karpenter · EKS Pod Identity</text>
</svg>
