<svg xmlns="http://www.w3.org/2000/svg" viewBox="0 0 1280 960" width="1280" height="960">
  <style>text { font-family: "Helvetica Neue", Helvetica, Arial, sans-serif; }</style>
  <defs>
    <marker id="arr-blue" markerWidth="10" markerHeight="7" refX="9" refY="3.5" orient="auto"><polygon points="0 0, 10 3.5, 0 7" fill="#2563eb"/></marker>
    <marker id="arr-green" markerWidth="10" markerHeight="7" refX="9" refY="3.5" orient="auto"><polygon points="0 0, 10 3.5, 0 7" fill="#16a34a"/></marker>
    <marker id="arr-orange" markerWidth="10" markerHeight="7" refX="9" refY="3.5" orient="auto"><polygon points="0 0, 10 3.5, 0 7" fill="#ea580c"/></marker>
    <marker id="arr-purple" markerWidth="10" markerHeight="7" refX="9" refY="3.5" orient="auto"><polygon points="0 0, 10 3.5, 0 7" fill="#7c3aed"/></marker>
    <marker id="arr-gray" markerWidth="10" markerHeight="7" refX="9" refY="3.5" orient="auto"><polygon points="0 0, 10 3.5, 0 7" fill="#6b7280"/></marker>
    <marker id="arr-teal" markerWidth="10" markerHeight="7" refX="9" refY="3.5" orient="auto"><polygon points="0 0, 10 3.5, 0 7" fill="#0d9488"/></marker>
    <marker id="arr-blue-r" markerWidth="10" markerHeight="7" refX="1" refY="3.5" orient="auto"><polygon points="10 0, 0 3.5, 10 7" fill="#2563eb"/></marker>
  </defs>
  <rect width="1280" height="960" fill="#ffffff"/>
  <text x="640" y="32" text-anchor="middle" font-size="20" font-weight="700" fill="#111827">Portefaix – Azure Infrastructure Architecture</text>
  <text x="640" y="52" text-anchor="middle" font-size="12" fill="#6b7280">Hub-and-Spoke VNet · AKS + Cilium · Workload Identity · LGTM Observability · Multi-subscription</text>
  <rect x="20" y="63" width="1240" height="88" rx="6" fill="#eff6ff" fill-opacity="0.5" stroke="#bfdbfe" stroke-width="1" stroke-dasharray="6,4"/>
  <text x="32" y="78" font-size="10" font-weight="600" fill="#2563eb" letter-spacing="0.06em">EXTERNAL</text>
  <rect x="38" y="80" width="130" height="58" rx="8" fill="#fff" stroke="#d1d5db" stroke-width="1.5"/>
  <circle cx="68" cy="100" r="11" fill="#dbeafe" stroke="#bfdbfe" stroke-width="1"/>
  <text x="68" y="104" text-anchor="middle" font-size="10">🌐</text>
  <text x="106" y="99" font-size="12" font-weight="600" fill="#111827">Internet</text>
  <text x="106" y="114" font-size="10" fill="#6b7280">Users / Traffic</text>
  <rect x="192" y="80" width="148" height="58" rx="8" fill="#fff" stroke="#d1d5db" stroke-width="1.5"/>
  <circle cx="222" cy="100" r="11" fill="#f3f4f6" stroke="#d1d5db" stroke-width="1"/>
  <text x="222" y="104" text-anchor="middle" font-size="10">⚙</text>
  <text x="260" y="99" font-size="12" font-weight="600" fill="#111827">GitHub Actions</text>
  <text x="260" y="114" font-size="10" fill="#6b7280">CI/CD · OIDC</text>
  <rect x="364" y="80" width="148" height="58" rx="8" fill="#fff" stroke="#d1d5db" stroke-width="1.5"/>
  <circle cx="394" cy="100" r="11" fill="#ede9fe" stroke="#c4b5fd" stroke-width="1"/>
  <text x="394" y="104" text-anchor="middle" font-size="10" fill="#7c3aed">TF</text>
  <text x="432" y="99" font-size="12" font-weight="600" fill="#111827">Terraform Cloud</text>
  <text x="432" y="114" font-size="10" fill="#6b7280">IaC Workspaces</text>
  <rect x="900" y="80" width="170" height="58" rx="8" fill="#fff" stroke="#d1d5db" stroke-width="1.5"/>
  <circle cx="930" cy="100" r="11" fill="#eff6ff" stroke="#bfdbfe" stroke-width="1"/>
  <text x="930" y="104" text-anchor="middle" font-size="9" fill="#0078D4">Az</text>
  <text x="970" y="99" font-size="12" font-weight="600" fill="#111827">Azure AD / Entra</text>
  <text x="970" y="114" font-size="10" fill="#6b7280">Identity Provider</text>
  <rect x="1090" y="80" width="170" height="58" rx="8" fill="#fff" stroke="#d1d5db" stroke-width="1.5"/>
  <circle cx="1120" cy="100" r="11" fill="#eff6ff" stroke="#bfdbfe" stroke-width="1"/>
  <text x="1120" y="104" text-anchor="middle" font-size="9" fill="#0078D4">TM</text>
  <text x="1158" y="99" font-size="12" font-weight="600" fill="#111827">Traffic Manager</text>
  <text x="1158" y="114" font-size="10" fill="#6b7280">Weighted routing</text>
  <rect x="20" y="164" width="1240" height="88" rx="6" fill="#fef2f2" fill-opacity="0.35" stroke="#fecaca" stroke-width="1" stroke-dasharray="6,4"/>
  <text x="32" y="179" font-size="10" font-weight="600" fill="#dc2626" letter-spacing="0.06em">INGRESS &amp; EDGE</text>
  <rect x="38" y="182" width="185" height="58" rx="8" fill="#fff" stroke="#fca5a5" stroke-width="1.5"/>
  <circle cx="68" cy="202" r="11" fill="#fef2f2" stroke="#fca5a5" stroke-width="1"/>
  <text x="68" y="206" text-anchor="middle" font-size="9" fill="#dc2626">ALB</text>
  <text x="118" y="201" font-size="12" font-weight="600" fill="#111827">App Gateway</text>
  <text x="118" y="216" font-size="10" fill="#6b7280">for Containers (AGFC)</text>
  <rect x="244" y="182" width="155" height="58" rx="8" fill="#fff" stroke="#fca5a5" stroke-width="1.5"/>
  <circle cx="274" cy="202" r="11" fill="#fef2f2" stroke="#fca5a5" stroke-width="1"/>
  <text x="274" y="206" text-anchor="middle" font-size="10">🛡</text>
  <text x="312" y="201" font-size="12" font-weight="600" fill="#111827">NSG Rules</text>
  <text x="312" y="216" font-size="10" fill="#6b7280">SSH · HTTP · HTTPS</text>
  <rect x="420" y="182" width="148" height="58" rx="8" fill="#fff" stroke="#d1d5db" stroke-width="1.5"/>
  <circle cx="450" cy="202" r="11" fill="#eff6ff" stroke="#bfdbfe" stroke-width="1"/>
  <text x="450" y="206" text-anchor="middle" font-size="9" fill="#0078D4">DNS</text>
  <text x="488" y="201" font-size="12" font-weight="600" fill="#111827">Azure DNS</text>
  <text x="488" y="216" font-size="10" fill="#6b7280">Private zones</text>
  <rect x="590" y="182" width="148" height="58" rx="8" fill="#fff" stroke="#d1d5db" stroke-width="1.5"/>
  <circle cx="620" cy="202" r="11" fill="#fff7ed" stroke="#fed7aa" stroke-width="1"/>
  <text x="620" y="206" text-anchor="middle" font-size="10">🔒</text>
  <text x="658" y="201" font-size="12" font-weight="600" fill="#111827">Cert Manager</text>
  <text x="658" y="216" font-size="10" fill="#6b7280">TLS Certs</text>
  <rect x="760" y="182" width="148" height="58" rx="8" fill="#fff" stroke="#d1d5db" stroke-width="1.5"/>
  <circle cx="790" cy="202" r="11" fill="#f0fdf4" stroke="#bbf7d0" stroke-width="1"/>
  <text x="790" y="206" text-anchor="middle" font-size="10">⚖</text>
  <text x="828" y="201" font-size="12" font-weight="600" fill="#111827">Azure Policy</text>
  <text x="828" y="216" font-size="10" fill="#6b7280">Governance rules</text>
  <rect x="20" y="264" width="1240" height="322" rx="6" fill="#f0fdf4" fill-opacity="0.3" stroke="#86efac" stroke-width="1.5" stroke-dasharray="8,4"/>
  <text x="32" y="279" font-size="10" font-weight="600" fill="#16a34a" letter-spacing="0.06em">AZURE HUB-AND-SPOKE NETWORK · Multi-subscription</text>
  <rect x="32" y="287" width="282" height="286" rx="8" fill="#eff6ff" fill-opacity="0.6" stroke="#93c5fd" stroke-width="1.5" stroke-dasharray="5,3"/>
  <text x="173" y="303" text-anchor="middle" font-size="9" font-weight="600" fill="#1d4ed8">HUB VNET · Network Subscription</text>
  <rect x="46" y="311" width="254" height="70" rx="6" fill="#fff" stroke="#fca5a5" stroke-width="1.5"/>
  <circle cx="80" cy="346" r="14" fill="#fef2f2" stroke="#fca5a5" stroke-width="1"/>
  <text x="80" y="350" text-anchor="middle" font-size="10">🔥</text>
  <text x="150" y="338" font-size="12" font-weight="600" fill="#111827">Azure Firewall</text>
  <text x="150" y="353" font-size="10" fill="#6b7280">NTP · DNS · MCR rules</text>
  <text x="150" y="368" font-size="10" fill="#6b7280">Docker Hub · OS updates</text>
  <rect x="46" y="393" width="254" height="70" rx="6" fill="#fff" stroke="#fca5a5" stroke-width="1.5"/>
  <circle cx="80" cy="428" r="14" fill="#fef2f2" stroke="#fca5a5" stroke-width="1"/>
  <text x="80" y="432" text-anchor="middle" font-size="10">🔐</text>
  <text x="150" y="420" font-size="12" font-weight="600" fill="#111827">Azure Bastion</text>
  <text x="150" y="435" font-size="10" fill="#6b7280">RDP/SSH · no public IPs</text>
  <text x="150" y="450" font-size="10" fill="#6b7280">AzureBastionSubnet</text>
  <rect x="46" y="475" width="254" height="58" rx="6" fill="#fff" stroke="#86efac" stroke-width="1.5"/>
  <circle cx="80" cy="504" r="14" fill="#f0fdf4" stroke="#86efac" stroke-width="1"/>
  <text x="80" y="508" text-anchor="middle" font-size="9" fill="#16a34a">NAT</text>
  <text x="150" y="500" font-size="12" font-weight="600" fill="#111827">NAT Gateway</text>
  <text x="150" y="515" font-size="10" fill="#6b7280">Outbound · Public IP</text>
  <!-- VNet Peering -->
  <rect x="316" y="390" width="84" height="40" rx="6" fill="#f0fdf4" stroke="#86efac" stroke-width="1"/>
  <text x="358" y="406" text-anchor="middle" font-size="9" font-weight="600" fill="#16a34a">VNet</text>
  <text x="358" y="419" text-anchor="middle" font-size="9" fill="#16a34a">Peering</text>
  <line x1="314" y1="410" x2="240" y2="410" stroke="#16a34a" stroke-width="1.5" marker-end="url(#arr-blue-r)"/>
  <line x1="400" y1="410" x2="462" y2="410" stroke="#16a34a" stroke-width="1.5" marker-end="url(#arr-green)"/>
  <rect x="406" y="287" width="840" height="286" rx="8" fill="#faf5ff" fill-opacity="0.5" stroke="#d8b4fe" stroke-width="1.5" stroke-dasharray="5,3"/>
  <text x="826" y="303" text-anchor="middle" font-size="9" font-weight="600" fill="#7c3aed">CORE VNET · Core Subscription · multi-env: dev · staging · prod</text>
  <rect x="420" y="311" width="510" height="248" rx="8" fill="#eff6ff" fill-opacity="0.7" stroke="#93c5fd" stroke-width="1.5" stroke-dasharray="5,3"/>
  <text x="675" y="327" text-anchor="middle" font-size="10" font-weight="600" fill="#1d4ed8">AKS CLUSTER · Azure RBAC · Workload Identity · OIDC Issuer</text>
  <rect x="434" y="335" width="220" height="208" rx="6" fill="#fff" stroke="#93c5fd" stroke-width="1.5"/>
  <text x="544" y="352" text-anchor="middle" font-size="11" font-weight="600" fill="#1d4ed8">Compute</text>
  <rect x="446" y="360" width="196" height="30" rx="4" fill="#eff6ff" stroke="#bfdbfe" stroke-width="1"/>
  <text x="544" y="380" text-anchor="middle" font-size="10" fill="#1d4ed8">Default Node Pool</text>
  <rect x="446" y="396" width="196" height="30" rx="4" fill="#f0fdf4" stroke="#bbf7d0" stroke-width="1"/>
  <text x="544" y="416" text-anchor="middle" font-size="10" fill="#15803d">Cilium CNI + overlay</text>
  <rect x="446" y="432" width="196" height="30" rx="4" fill="#f0fdf4" stroke="#bbf7d0" stroke-width="1"/>
  <text x="544" y="452" text-anchor="middle" font-size="10" fill="#15803d">Cilium Network Policy</text>
  <rect x="446" y="468" width="196" height="30" rx="4" fill="#faf5ff" stroke="#e9d5ff" stroke-width="1"/>
  <text x="544" y="488" text-anchor="middle" font-size="10" fill="#7c3aed">Key Vault Secrets CSI</text>
  <text x="544" y="524" text-anchor="middle" font-size="9" fill="#6b7280">Standard_DS2_v2 · Autoscale</text>
  <text x="544" y="537" text-anchor="middle" font-size="9" fill="#6b7280">Image Cleaner · 72h interval</text>
  <rect x="666" y="335" width="250" height="208" rx="6" fill="#fff" stroke="#93c5fd" stroke-width="1.5"/>
  <text x="791" y="352" text-anchor="middle" font-size="11" font-weight="600" fill="#1d4ed8">K8s Addons</text>
  <rect x="678" y="360" width="226" height="28" rx="4" fill="#eff6ff" stroke="#bfdbfe" stroke-width="1"/>
  <text x="791" y="379" text-anchor="middle" font-size="10" fill="#1d4ed8">AGFC / ALB Controller</text>
  <rect x="678" y="394" width="226" height="28" rx="4" fill="#f0fdf4" stroke="#bbf7d0" stroke-width="1"/>
  <text x="791" y="413" text-anchor="middle" font-size="10" fill="#15803d">External DNS</text>
  <rect x="678" y="428" width="226" height="28" rx="4" fill="#fff7ed" stroke="#fed7aa" stroke-width="1"/>
  <text x="791" y="447" text-anchor="middle" font-size="10" fill="#c2410c">Cert Manager</text>
  <rect x="678" y="462" width="226" height="28" rx="4" fill="#faf5ff" stroke="#e9d5ff" stroke-width="1"/>
  <text x="791" y="481" text-anchor="middle" font-size="10" fill="#7c3aed">Azure Policy Addon</text>
  <text x="791" y="516" text-anchor="middle" font-size="9" fill="#6b7280">Managed Identity integration</text>
  <text x="791" y="530" text-anchor="middle" font-size="9" fill="#6b7280">OMS Agent · Log Analytics</text>
  <rect x="944" y="311" width="290" height="248" rx="8" fill="#fff7ed" fill-opacity="0.7" stroke="#fed7aa" stroke-width="1.5" stroke-dasharray="5,3"/>
  <text x="1089" y="327" text-anchor="middle" font-size="10" font-weight="600" fill="#c2410c">OBSERVABILITY (LGTM)</text>
  <rect x="958" y="335" width="258" height="46" rx="6" fill="#fff" stroke="#fed7aa" stroke-width="1"/>
  <circle cx="982" cy="358" r="10" fill="#E6522C" fill-opacity="0.15"/>
  <text x="982" y="362" text-anchor="middle" font-size="10" fill="#E6522C" font-weight="700">P</text>
  <text x="1045" y="354" font-size="11" font-weight="600" fill="#111827">Prometheus</text>
  <text x="1045" y="369" font-size="9" fill="#6b7280">Metrics · Workload Identity</text>
  <rect x="958" y="389" width="258" height="46" rx="6" fill="#fff" stroke="#fed7aa" stroke-width="1"/>
  <circle cx="982" cy="412" r="10" fill="#E6522C" fill-opacity="0.15"/>
  <text x="982" y="416" text-anchor="middle" font-size="10" fill="#E6522C" font-weight="700">M</text>
  <text x="1045" y="408" font-size="11" font-weight="600" fill="#111827">Mimir</text>
  <text x="1045" y="423" font-size="9" fill="#6b7280">Long-term metrics · Blob</text>
  <rect x="958" y="443" width="258" height="46" rx="6" fill="#fff" stroke="#fed7aa" stroke-width="1"/>
  <circle cx="982" cy="466" r="10" fill="#F46800" fill-opacity="0.2"/>
  <text x="982" y="470" text-anchor="middle" font-size="10" fill="#F46800" font-weight="700">L</text>
  <text x="1045" y="462" font-size="11" font-weight="600" fill="#111827">Loki</text>
  <text x="1045" y="477" font-size="9" fill="#6b7280">Log aggregation · Blob</text>
  <rect x="958" y="497" width="258" height="46" rx="6" fill="#fff" stroke="#fed7aa" stroke-width="1"/>
  <circle cx="982" cy="520" r="10" fill="#7c3aed" fill-opacity="0.15"/>
  <text x="982" y="524" text-anchor="middle" font-size="10" fill="#7c3aed" font-weight="700">T</text>
  <text x="1045" y="516" font-size="11" font-weight="600" fill="#111827">Tempo</text>
  <text x="1045" y="531" font-size="9" fill="#6b7280">Distributed traces · Blob</text>
  <text x="1089" y="554" text-anchor="middle" font-size="9" fill="#6b7280">All via Workload Identity Federation</text>
  <text x="1089" y="567" text-anchor="middle" font-size="9" fill="#6b7280">Azure Blob Storage backend</text>
  <rect x="20" y="597" width="1240" height="88" rx="6" fill="#faf5ff" fill-opacity="0.4" stroke="#d8b4fe" stroke-width="1" stroke-dasharray="6,4"/>
  <text x="32" y="612" font-size="10" font-weight="600" fill="#7c3aed" letter-spacing="0.06em">PLATFORM SERVICES</text>
  <rect x="38" y="618" width="165" height="55" rx="8" fill="#fff" stroke="#d1d5db" stroke-width="1.5"/>
  <circle cx="68" cy="640" r="11" fill="#eff6ff" stroke="#bfdbfe" stroke-width="1"/>
  <text x="68" y="644" text-anchor="middle" font-size="9" fill="#0078D4">ACR</text>
  <text x="112" y="639" font-size="12" font-weight="600" fill="#111827">Container Registry</text>
  <text x="112" y="654" font-size="10" fill="#6b7280">Shared · AcrPull RBAC</text>
  <rect x="220" y="618" width="150" height="55" rx="8" fill="#fff" stroke="#fca5a5" stroke-width="1.5"/>
  <circle cx="250" cy="640" r="11" fill="#fef2f2" stroke="#fca5a5" stroke-width="1"/>
  <text x="250" y="644" text-anchor="middle" font-size="10">🔑</text>
  <text x="288" y="639" font-size="12" font-weight="600" fill="#111827">Key Vault</text>
  <text x="288" y="654" font-size="10" fill="#6b7280">Secrets · Certs · Keys</text>
  <rect x="388" y="618" width="160" height="55" rx="8" fill="#fff" stroke="#d1d5db" stroke-width="1.5"/>
  <circle cx="418" cy="640" r="11" fill="#f0fdf4" stroke="#bbf7d0" stroke-width="1"/>
  <text x="418" y="644" text-anchor="middle" font-size="9" fill="#16a34a">BLOB</text>
  <text x="458" y="639" font-size="12" font-weight="600" fill="#111827">Blob Storage</text>
  <text x="458" y="654" font-size="10" fill="#6b7280">LGTM backends</text>
  <rect x="566" y="618" width="180" height="55" rx="8" fill="#fff" stroke="#d1d5db" stroke-width="1.5"/>
  <circle cx="596" cy="640" r="11" fill="#eff6ff" stroke="#bfdbfe" stroke-width="1"/>
  <text x="596" y="644" text-anchor="middle" font-size="9" fill="#0078D4">LA</text>
  <text x="638" y="639" font-size="12" font-weight="600" fill="#111827">Log Analytics</text>
  <text x="638" y="654" font-size="10" fill="#6b7280">Logging Subscription</text>
  <rect x="764" y="618" width="180" height="55" rx="8" fill="#fff" stroke="#d1d5db" stroke-width="1.5"/>
  <circle cx="794" cy="640" r="11" fill="#fff7ed" stroke="#fed7aa" stroke-width="1"/>
  <text x="794" y="644" text-anchor="middle" font-size="9" fill="#F46800">Mon</text>
  <text x="836" y="639" font-size="12" font-weight="600" fill="#111827">Azure Monitor</text>
  <text x="836" y="654" font-size="10" fill="#6b7280">Metrics Workspace</text>
  <rect x="962" y="618" width="165" height="55" rx="8" fill="#fff" stroke="#d1d5db" stroke-width="1.5"/>
  <circle cx="992" cy="640" r="11" fill="#ede9fe" stroke="#c4b5fd" stroke-width="1"/>
  <text x="992" y="644" text-anchor="middle" font-size="9" fill="#7c3aed">TF</text>
  <text x="1034" y="639" font-size="12" font-weight="600" fill="#111827">TF Cloud State</text>
  <text x="1034" y="654" font-size="10" fill="#6b7280">Remote backends</text>
  <rect x="20" y="697" width="1240" height="88" rx="6" fill="#f0fdfa" fill-opacity="0.5" stroke="#5eead4" stroke-width="1" stroke-dasharray="6,4"/>
  <text x="32" y="712" font-size="10" font-weight="600" fill="#0d9488" letter-spacing="0.06em">IDENTITY &amp; ACCESS MANAGEMENT</text>
  <rect x="38" y="718" width="185" height="55" rx="8" fill="#fff" stroke="#5eead4" stroke-width="1.5"/>
  <circle cx="68" cy="740" r="11" fill="#f0fdfa" stroke="#5eead4" stroke-width="1"/>
  <text x="68" y="744" text-anchor="middle" font-size="9" fill="#0d9488">WI</text>
  <text x="115" y="739" font-size="12" font-weight="600" fill="#111827">Workload Identity</text>
  <text x="115" y="754" font-size="10" fill="#6b7280">Pod → Azure auth</text>
  <rect x="240" y="718" width="165" height="55" rx="8" fill="#fff" stroke="#5eead4" stroke-width="1.5"/>
  <circle cx="270" cy="740" r="11" fill="#f0fdfa" stroke="#5eead4" stroke-width="1"/>
  <text x="270" y="744" text-anchor="middle" font-size="9" fill="#0d9488">OIDC</text>
  <text x="312" y="739" font-size="12" font-weight="600" fill="#111827">OIDC Issuer</text>
  <text x="312" y="754" font-size="10" fill="#6b7280">AKS-native federation</text>
  <rect x="424" y="718" width="175" height="55" rx="8" fill="#fff" stroke="#5eead4" stroke-width="1.5"/>
  <circle cx="454" cy="740" r="11" fill="#f0fdfa" stroke="#5eead4" stroke-width="1"/>
  <text x="454" y="744" text-anchor="middle" font-size="9" fill="#0d9488">MI</text>
  <text x="500" y="739" font-size="12" font-weight="600" fill="#111827">Managed Identities</text>
  <text x="500" y="754" font-size="10" fill="#6b7280">Cluster · Kubelet</text>
  <rect x="618" y="718" width="165" height="55" rx="8" fill="#fff" stroke="#5eead4" stroke-width="1.5"/>
  <circle cx="648" cy="740" r="11" fill="#f0fdfa" stroke="#5eead4" stroke-width="1"/>
  <text x="648" y="744" text-anchor="middle" font-size="9" fill="#0d9488">AAD</text>
  <text x="690" y="739" font-size="12" font-weight="600" fill="#111827">Azure AD RBAC</text>
  <text x="690" y="754" font-size="10" fill="#6b7280">K8s · local accts off</text>
  <rect x="802" y="718" width="446" height="55" rx="8" fill="#fff" stroke="#5eead4" stroke-width="1.5"/>
  <circle cx="832" cy="740" r="11" fill="#f0fdfa" stroke="#5eead4" stroke-width="1"/>
  <text x="832" y="744" text-anchor="middle" font-size="9" fill="#0d9488">SUB</text>
  <text x="878" y="736" font-size="12" font-weight="600" fill="#111827">Azure Subscriptions</text>
  <text x="878" y="751" font-size="10" fill="#6b7280">core-dev · core-staging · core-prod · network · shared · logging · audit</text>
  <text x="878" y="766" font-size="10" fill="#6b7280">Terraform Cloud per-component workspaces · azurerm v4.49 · azapi v2.7</text>
  <rect x="20" y="797" width="1240" height="78" rx="6" fill="#f9fafb" fill-opacity="0.8" stroke="#e5e7eb" stroke-width="1" stroke-dasharray="6,4"/>
  <text x="32" y="812" font-size="10" font-weight="600" fill="#6b7280" letter-spacing="0.06em">AZURE RESOURCE GROUPS</text>
  <rect x="38" y="820" width="288" height="28" rx="4" fill="#f3f4f6" stroke="#e5e7eb" stroke-width="1"/>
  <text x="46" y="833" font-size="9" font-weight="600" fill="#111827">{org}-vnet-{env}</text>
  <text x="46" y="844" font-size="9" fill="#6b7280">Core VNet</text>
  <rect x="338" y="820" width="288" height="28" rx="4" fill="#f3f4f6" stroke="#e5e7eb" stroke-width="1"/>
  <text x="346" y="833" font-size="9" font-weight="600" fill="#111827">{org}-hub</text>
  <text x="346" y="844" font-size="9" fill="#6b7280">Hub VNet+FW+Bastion</text>
  <rect x="638" y="820" width="288" height="28" rx="4" fill="#f3f4f6" stroke="#e5e7eb" stroke-width="1"/>
  <text x="646" y="833" font-size="9" font-weight="600" fill="#111827">{org}-core-{env}</text>
  <text x="646" y="844" font-size="9" fill="#6b7280">AKS Cluster</text>
  <rect x="938" y="820" width="288" height="28" rx="4" fill="#f3f4f6" stroke="#e5e7eb" stroke-width="1"/>
  <text x="946" y="833" font-size="9" font-weight="600" fill="#111827">{org}-acr-{env}</text>
  <text x="946" y="844" font-size="9" fill="#6b7280">Container Registry</text>
  <rect x="38" y="856" width="288" height="28" rx="4" fill="#f3f4f6" stroke="#e5e7eb" stroke-width="1"/>
  <text x="46" y="869" font-size="9" font-weight="600" fill="#111827">{org}-{env}-natgw</text>
  <text x="46" y="880" font-size="9" fill="#6b7280">NAT Gateway</text>
  <rect x="338" y="856" width="288" height="28" rx="4" fill="#f3f4f6" stroke="#e5e7eb" stroke-width="1"/>
  <text x="346" y="869" font-size="9" font-weight="600" fill="#111827">{org}-{env}-monitor</text>
  <text x="346" y="880" font-size="9" fill="#6b7280">Log Analytics</text>
  <rect x="638" y="856" width="288" height="28" rx="4" fill="#f3f4f6" stroke="#e5e7eb" stroke-width="1"/>
  <text x="646" y="869" font-size="9" font-weight="600" fill="#111827">{org}-{env}-secrets</text>
  <text x="646" y="880" font-size="9" fill="#6b7280">Key Vault</text>
  <rect x="938" y="856" width="288" height="28" rx="4" fill="#f3f4f6" stroke="#e5e7eb" stroke-width="1"/>
  <text x="946" y="869" font-size="9" font-weight="600" fill="#111827">{org}-{env}-observability</text>
  <text x="946" y="880" font-size="9" fill="#6b7280">LGTM Stack</text>
  <path d="M 103,138 L 103,182" stroke="#ea580c" stroke-width="1.5" fill="none" marker-end="url(#arr-orange)"/>
  <path d="M 1175,138 L 1175,156 L 130,156 L 130,182" stroke="#2563eb" stroke-width="1" stroke-dasharray="4,3" fill="none" marker-end="url(#arr-blue)"/>
  <path d="M 130,240 L 130,252 L 675,252 L 675,311" stroke="#2563eb" stroke-width="1.5" fill="none" marker-end="url(#arr-blue)"/>
  <path d="M 173,428 L 315,428 L 315,420 L 420,420" stroke="#dc2626" stroke-width="1.5" stroke-dasharray="5,3" fill="none" marker-end="url(#arr-orange)"/>
  <path d="M 173,346 L 215,346 L 215,246 L 103,246 L 103,152" stroke="#ea580c" stroke-width="1" stroke-dasharray="4,3" fill="none" marker-end="url(#arr-orange)"/>
  <path d="M 544,559 L 544,580 L 120,580 L 120,618" stroke="#6b7280" stroke-width="1.5" fill="none" marker-end="url(#arr-gray)"/>
  <path d="M 675,559 L 675,580 L 295,580 L 295,618" stroke="#6b7280" stroke-width="1.5" fill="none" marker-end="url(#arr-gray)"/>
  <path d="M 1089,559 L 1089,580 L 468,580 L 468,618" stroke="#16a34a" stroke-width="1.5" fill="none" marker-end="url(#arr-green)"/>
  <path d="M 791,559 L 791,580 L 656,580 L 656,618" stroke="#6b7280" stroke-width="1" stroke-dasharray="4,3" fill="none" marker-end="url(#arr-gray)"/>
  <path d="M 1050,559 L 1050,572 L 844,572 L 844,618" stroke="#ea580c" stroke-width="1" stroke-dasharray="4,3" fill="none" marker-end="url(#arr-orange)"/>
  <path d="M 266,138 L 266,155 L 405,155 L 405,697" stroke="#7c3aed" stroke-width="1" stroke-dasharray="4,3" fill="none" marker-end="url(#arr-purple)"/>
  <path d="M 438,138 L 438,155 L 1044,155 L 1044,618" stroke="#7c3aed" stroke-width="1" stroke-dasharray="4,3" fill="none" marker-end="url(#arr-purple)"/>
  <path d="M 130,718 L 130,685 L 675,685 L 675,559" stroke="#0d9488" stroke-width="1.5" fill="none" marker-end="url(#arr-teal)"/>
  <path d="M 965,100 L 965,157 L 791,157 L 791,311" stroke="#0078D4" stroke-width="1" stroke-dasharray="4,3" fill="none" marker-end="url(#arr-blue)"/>
  <path d="M 544,510 L 544,525 L 210,525 L 210,610 L 295,610 L 295,618" stroke="#7c3aed" stroke-width="1" stroke-dasharray="3,3" fill="none" marker-end="url(#arr-purple)"/>
  <rect x="20" y="886" width="620" height="62" rx="6" fill="#f9fafb" stroke="#e5e7eb" stroke-width="1"/>
  <text x="32" y="901" font-size="11" font-weight="600" fill="#111827">Legend</text>
  <line x1="32" y1="916" x2="58" y2="916" stroke="#ea580c" stroke-width="1.5" marker-end="url(#arr-orange)"/>
  <text x="64" y="920" font-size="10" fill="#6b7280">Traffic / control</text>
  <line x1="175" y1="916" x2="201" y2="916" stroke="#2563eb" stroke-width="1.5" marker-end="url(#arr-blue)"/>
  <text x="207" y="920" font-size="10" fill="#6b7280">Data / request flow</text>
  <line x1="330" y1="916" x2="356" y2="916" stroke="#16a34a" stroke-width="1.5" marker-end="url(#arr-green)"/>
  <text x="362" y="920" font-size="10" fill="#6b7280">Storage write</text>
  <line x1="450" y1="916" x2="476" y2="916" stroke="#7c3aed" stroke-width="1.5" stroke-dasharray="4,2" marker-end="url(#arr-purple)"/>
  <text x="482" y="920" font-size="10" fill="#6b7280">OIDC / identity</text>
  <line x1="32" y1="939" x2="58" y2="939" stroke="#6b7280" stroke-width="1.5" stroke-dasharray="4,2" marker-end="url(#arr-gray)"/>
  <text x="64" y="943" font-size="10" fill="#6b7280">Async / optional</text>
  <line x1="175" y1="939" x2="201" y2="939" stroke="#0d9488" stroke-width="1.5" marker-end="url(#arr-teal)"/>
  <text x="207" y="943" font-size="10" fill="#6b7280">Workload Identity auth</text>
  <line x1="330" y1="939" x2="356" y2="939" stroke="#16a34a" stroke-width="1.5" marker-end="url(#arr-green)"/>
  <line x1="356" y1="939" x2="330" y2="939" stroke="#16a34a" stroke-width="1.5" marker-end="url(#arr-green)"/>
  <text x="362" y="943" font-size="10" fill="#6b7280">VNet peering (bidir.)</text>
  <rect x="656" y="886" width="604" height="62" rx="6" fill="#eff6ff" stroke="#bfdbfe" stroke-width="1"/>
  <text x="958" y="901" text-anchor="middle" font-size="11" font-weight="600" fill="#1d4ed8">Hub-and-Spoke Topology</text>
  <text x="958" y="917" text-anchor="middle" font-size="10" fill="#6b7280">Hub (Network Sub): Azure Firewall · Bastion · NAT Gateway</text>
  <text x="958" y="932" text-anchor="middle" font-size="10" fill="#6b7280">Spoke (Core Sub): AKS · AGFC · Cilium · Workload Identity</text>
  <text x="958" y="947" text-anchor="middle" font-size="10" fill="#6b7280">azurerm v4.49 · azapi v2.7 · Azure AVM modules · per-env: dev · staging · prod</text>
</svg>
