<svg xmlns="http://www.w3.org/2000/svg" viewBox="0 0 1200 900" width="1200" height="900">
  <style>
    text { font-family: "Helvetica Neue", Helvetica, Arial, sans-serif; }
  </style>
  <defs>
    <marker id="arr-blue" markerWidth="10" markerHeight="7" refX="9" refY="3.5" orient="auto">
      <polygon points="0 0, 10 3.5, 0 7" fill="#2563eb"/>
    </marker>
    <marker id="arr-green" markerWidth="10" markerHeight="7" refX="9" refY="3.5" orient="auto">
      <polygon points="0 0, 10 3.5, 0 7" fill="#16a34a"/>
    </marker>
    <marker id="arr-orange" markerWidth="10" markerHeight="7" refX="9" refY="3.5" orient="auto">
      <polygon points="0 0, 10 3.5, 0 7" fill="#ea580c"/>
    </marker>
    <marker id="arr-purple" markerWidth="10" markerHeight="7" refX="9" refY="3.5" orient="auto">
      <polygon points="0 0, 10 3.5, 0 7" fill="#7c3aed"/>
    </marker>
    <marker id="arr-gray" markerWidth="10" markerHeight="7" refX="9" refY="3.5" orient="auto">
      <polygon points="0 0, 10 3.5, 0 7" fill="#6b7280"/>
    </marker>
  </defs>
  <rect width="1200" height="900" fill="#ffffff"/>
  <text x="600" y="32" text-anchor="middle" font-size="20" font-weight="700" fill="#111827">Portefaix – GCP Infrastructure Architecture</text>
  <text x="600" y="52" text-anchor="middle" font-size="12" fill="#6b7280">Multi-environment · Shared VPC · Private GKE · LGTM Observability Stack</text>
  <!-- Layer 1: External -->
  <rect x="20" y="65" width="1160" height="90" rx="6" fill="#eff6ff" fill-opacity="0.5" stroke="#bfdbfe" stroke-width="1" stroke-dasharray="6,4"/>
  <text x="32" y="80" font-size="10" font-weight="600" fill="#2563eb" letter-spacing="0.06em">EXTERNAL</text>
  <rect x="40" y="85" width="130" height="58" rx="8" fill="#ffffff" stroke="#d1d5db" stroke-width="1.5"/>
  <circle cx="72" cy="105" r="12" fill="#dbeafe" stroke="#bfdbfe" stroke-width="1"/>
  <text x="72" y="109" text-anchor="middle" font-size="10">🌐</text>
  <text x="105" y="107" font-size="13" font-weight="600" fill="#111827">Internet</text>
  <text x="105" y="122" font-size="11" fill="#6b7280">Users / Traffic</text>
  <rect x="200" y="85" width="145" height="58" rx="8" fill="#ffffff" stroke="#d1d5db" stroke-width="1.5"/>
  <circle cx="230" cy="105" r="12" fill="#f3f4f6" stroke="#d1d5db" stroke-width="1"/>
  <text x="230" y="109" text-anchor="middle" font-size="10">⚙</text>
  <text x="268" y="107" font-size="13" font-weight="600" fill="#111827">GitHub Actions</text>
  <text x="268" y="122" font-size="11" fill="#6b7280">CI/CD OIDC</text>
  <rect x="375" y="85" width="145" height="58" rx="8" fill="#ffffff" stroke="#d1d5db" stroke-width="1.5"/>
  <circle cx="405" cy="105" r="12" fill="#ede9fe" stroke="#c4b5fd" stroke-width="1"/>
  <text x="405" y="109" text-anchor="middle" font-size="10" fill="#7c3aed">TF</text>
  <text x="443" y="107" font-size="13" font-weight="600" fill="#111827">Terraform Cloud</text>
  <text x="443" y="122" font-size="11" fill="#6b7280">Infra Automation</text>
  <rect x="1020" y="85" width="140" height="58" rx="8" fill="#ffffff" stroke="#d1d5db" stroke-width="1.5"/>
  <circle cx="1050" cy="105" r="12" fill="#fef2f2" stroke="#fecaca" stroke-width="1"/>
  <text x="1050" y="109" text-anchor="middle" font-size="10">📋</text>
  <text x="1088" y="107" font-size="13" font-weight="600" fill="#111827">Cloud Audit</text>
  <text x="1088" y="122" font-size="11" fill="#6b7280">Org Audit Logs</text>
  <rect x="860" y="85" width="140" height="58" rx="8" fill="#ffffff" stroke="#d1d5db" stroke-width="1.5"/>
  <circle cx="890" cy="105" r="12" fill="#f0fdf4" stroke="#bbf7d0" stroke-width="1"/>
  <text x="890" y="109" text-anchor="middle" font-size="10">📊</text>
  <text x="928" y="107" font-size="13" font-weight="600" fill="#111827">Log Project</text>
  <text x="928" y="122" font-size="11" fill="#6b7280">Central Logging</text>
  <!-- Layer 2: Security/Edge -->
  <rect x="20" y="165" width="1160" height="90" rx="6" fill="#fef2f2" fill-opacity="0.4" stroke="#fecaca" stroke-width="1" stroke-dasharray="6,4"/>
  <text x="32" y="180" font-size="10" font-weight="600" fill="#dc2626" letter-spacing="0.06em">SECURITY &amp; EDGE</text>
  <rect x="40" y="185" width="130" height="58" rx="8" fill="#ffffff" stroke="#fca5a5" stroke-width="1.5"/>
  <circle cx="70" cy="205" r="12" fill="#fef2f2" stroke="#fca5a5" stroke-width="1"/>
  <text x="70" y="209" text-anchor="middle" font-size="10">🛡</text>
  <text x="108" y="207" font-size="13" font-weight="600" fill="#111827">Cloud Armor</text>
  <text x="108" y="222" font-size="11" fill="#6b7280">WAF / DDoS</text>
  <rect x="200" y="185" width="145" height="58" rx="8" fill="#ffffff" stroke="#d1d5db" stroke-width="1.5"/>
  <circle cx="230" cy="205" r="12" fill="#eff6ff" stroke="#bfdbfe" stroke-width="1"/>
  <text x="230" y="209" text-anchor="middle" font-size="10" fill="#2563eb">LB</text>
  <text x="268" y="207" font-size="13" font-weight="600" fill="#111827">External LB</text>
  <text x="268" y="222" font-size="11" fill="#6b7280">External IPs</text>
  <rect x="375" y="185" width="130" height="58" rx="8" fill="#ffffff" stroke="#d1d5db" stroke-width="1.5"/>
  <circle cx="405" cy="205" r="12" fill="#eff6ff" stroke="#bfdbfe" stroke-width="1"/>
  <text x="405" y="209" text-anchor="middle" font-size="10" fill="#2563eb">DNS</text>
  <text x="438" y="207" font-size="13" font-weight="600" fill="#111827">Cloud DNS</text>
  <text x="438" y="222" font-size="11" fill="#6b7280">DNS Zones</text>
  <rect x="535" y="185" width="130" height="58" rx="8" fill="#ffffff" stroke="#d1d5db" stroke-width="1.5"/>
  <circle cx="565" cy="205" r="12" fill="#f0fdf4" stroke="#bbf7d0" stroke-width="1"/>
  <text x="565" y="209" text-anchor="middle" font-size="9" fill="#16a34a">ext</text>
  <text x="598" y="207" font-size="13" font-weight="600" fill="#111827">External DNS</text>
  <text x="598" y="222" font-size="11" fill="#6b7280">K8s-driven DNS</text>
  <rect x="695" y="185" width="130" height="58" rx="8" fill="#ffffff" stroke="#d1d5db" stroke-width="1.5"/>
  <circle cx="725" cy="205" r="12" fill="#fff7ed" stroke="#fed7aa" stroke-width="1"/>
  <text x="725" y="209" text-anchor="middle" font-size="10">🔒</text>
  <text x="758" y="207" font-size="13" font-weight="600" fill="#111827">Cert Manager</text>
  <text x="758" y="222" font-size="11" fill="#6b7280">TLS Certs</text>
  <!-- Layer 3: VPC/Network -->
  <rect x="20" y="270" width="1160" height="265" rx="6" fill="#f0fdf4" fill-opacity="0.4" stroke="#86efac" stroke-width="1.5" stroke-dasharray="8,4"/>
  <text x="32" y="285" font-size="10" font-weight="600" fill="#16a34a" letter-spacing="0.06em">GCP SHARED VPC · NETWORK PROJECT</text>
  <rect x="40" y="295" width="120" height="58" rx="8" fill="#ffffff" stroke="#86efac" stroke-width="1.5"/>
  <circle cx="70" cy="315" r="12" fill="#f0fdf4" stroke="#86efac" stroke-width="1"/>
  <text x="70" y="319" text-anchor="middle" font-size="9" fill="#16a34a">NAT</text>
  <text x="105" y="317" font-size="13" font-weight="600" fill="#111827">Cloud NAT</text>
  <text x="105" y="332" font-size="11" fill="#6b7280">Egress Traffic</text>
  <rect x="40" y="375" width="120" height="58" rx="8" fill="#ffffff" stroke="#d1d5db" stroke-width="1.5"/>
  <circle cx="70" cy="395" r="12" fill="#eff6ff" stroke="#bfdbfe" stroke-width="1"/>
  <text x="70" y="399" text-anchor="middle" font-size="9" fill="#2563eb">ILB</text>
  <text x="105" y="397" font-size="13" font-weight="600" fill="#111827">Internal LB</text>
  <text x="105" y="412" font-size="11" fill="#6b7280">Private Services</text>
  <rect x="40" y="455" width="120" height="58" rx="8" fill="#ffffff" stroke="#fca5a5" stroke-width="1.5"/>
  <circle cx="70" cy="475" r="12" fill="#fef2f2" stroke="#fca5a5" stroke-width="1"/>
  <text x="70" y="479" text-anchor="middle" font-size="10">🔐</text>
  <text x="105" y="477" font-size="13" font-weight="600" fill="#111827">IAP Bastion</text>
  <text x="105" y="492" font-size="11" fill="#6b7280">Secure Access</text>
  <!-- GKE Cluster container -->
  <rect x="185" y="290" width="760" height="232" rx="8" fill="#eff6ff" fill-opacity="0.6" stroke="#93c5fd" stroke-width="1.5" stroke-dasharray="6,3"/>
  <text x="197" y="306" font-size="10" font-weight="600" fill="#2563eb">GKE CLUSTER · PRIVATE NODES · Workload Identity · Binary Auth · Network Policy (Calico)</text>
  <rect x="200" y="312" width="170" height="192" rx="8" fill="#ffffff" stroke="#93c5fd" stroke-width="1.5"/>
  <text x="285" y="330" text-anchor="middle" font-size="12" font-weight="600" fill="#1d4ed8">System Pool</text>
  <text x="285" y="348" text-anchor="middle" font-size="11" fill="#6b7280">Core services</text>
  <text x="285" y="365" text-anchor="middle" font-size="10" fill="#6b7280">HPA + VPA</text>
  <!-- K8s icon -->
  <circle cx="285" cy="420" r="28" fill="#326CE5" fill-opacity="0.1" stroke="#326CE5" stroke-width="1.5"/>
  <text x="285" y="415" text-anchor="middle" font-size="18">☸</text>
  <text x="285" y="433" text-anchor="middle" font-size="10" fill="#326CE5">Kubernetes</text>
  <text x="285" y="489" text-anchor="middle" font-size="10" fill="#6b7280">GKE Gateway API</text>
  <rect x="390" y="312" width="170" height="192" rx="8" fill="#ffffff" stroke="#93c5fd" stroke-width="1.5"/>
  <text x="475" y="330" text-anchor="middle" font-size="12" font-weight="600" fill="#1d4ed8">Workloads</text>
  <text x="475" y="348" text-anchor="middle" font-size="11" fill="#6b7280">Application Pods</text>
  <text x="475" y="365" text-anchor="middle" font-size="10" fill="#6b7280">Shielded Nodes</text>
  <rect x="415" y="378" width="120" height="32" rx="4" fill="#eff6ff" stroke="#bfdbfe" stroke-width="1"/>
  <text x="475" y="399" text-anchor="middle" font-size="11" fill="#1d4ed8">Istio / Service Mesh</text>
  <rect x="415" y="420" width="120" height="32" rx="4" fill="#f0fdf4" stroke="#bbf7d0" stroke-width="1"/>
  <text x="475" y="441" text-anchor="middle" font-size="11" fill="#15803d">Config Connector</text>
  <rect x="415" y="462" width="120" height="32" rx="4" fill="#fff7ed" stroke="#fed7aa" stroke-width="1"/>
  <text x="475" y="483" text-anchor="middle" font-size="11" fill="#c2410c">Managed Prometheus</text>
  <rect x="580" y="312" width="350" height="192" rx="8" fill="#ffffff" stroke="#93c5fd" stroke-width="1.5"/>
  <text x="755" y="330" text-anchor="middle" font-size="12" font-weight="600" fill="#1d4ed8">Observability Stack (LGTM)</text>
  <rect x="596" y="340" width="148" height="52" rx="6" fill="#fff7ed" stroke="#fed7aa" stroke-width="1"/>
  <circle cx="622" cy="366" r="12" fill="#E6522C" fill-opacity="0.2"/>
  <text x="622" y="370" text-anchor="middle" font-size="10" fill="#E6522C" font-weight="700">P</text>
  <text x="680" y="362" font-size="12" font-weight="600" fill="#111827">Prometheus</text>
  <text x="680" y="378" font-size="10" fill="#6b7280">Metrics · Thanos</text>
  <rect x="756" y="340" width="156" height="52" rx="6" fill="#f0fdf4" stroke="#bbf7d0" stroke-width="1"/>
  <circle cx="782" cy="366" r="12" fill="#F46800" fill-opacity="0.2"/>
  <text x="782" y="370" text-anchor="middle" font-size="10" fill="#F46800" font-weight="700">L</text>
  <text x="836" y="362" font-size="12" font-weight="600" fill="#111827">Loki</text>
  <text x="836" y="378" font-size="10" fill="#6b7280">Log Aggregation</text>
  <rect x="596" y="404" width="148" height="52" rx="6" fill="#faf5ff" stroke="#e9d5ff" stroke-width="1"/>
  <circle cx="622" cy="430" r="12" fill="#7c3aed" fill-opacity="0.2"/>
  <text x="622" y="434" text-anchor="middle" font-size="10" fill="#7c3aed" font-weight="700">T</text>
  <text x="680" y="426" font-size="12" font-weight="600" fill="#111827">Tempo</text>
  <text x="680" y="442" font-size="10" fill="#6b7280">Distributed Traces</text>
  <rect x="756" y="404" width="156" height="52" rx="6" fill="#fff7ed" stroke="#fed7aa" stroke-width="1"/>
  <circle cx="782" cy="430" r="12" fill="#F46800" fill-opacity="0.2"/>
  <text x="782" y="434" text-anchor="middle" font-size="10" fill="#F46800" font-weight="700">G</text>
  <text x="836" y="426" font-size="12" font-weight="600" fill="#111827">Grafana</text>
  <text x="836" y="442" font-size="10" fill="#6b7280">Dashboards</text>
  <text x="755" y="475" text-anchor="middle" font-size="10" fill="#6b7280">Cloud Storage backend · KMS encrypted</text>
  <text x="755" y="488" text-anchor="middle" font-size="10" fill="#6b7280">multi-env: dev · staging · prod</text>
  <!-- Layer 4: Platform Services -->
  <rect x="20" y="552" width="1160" height="90" rx="6" fill="#faf5ff" fill-opacity="0.4" stroke="#d8b4fe" stroke-width="1" stroke-dasharray="6,4"/>
  <text x="32" y="567" font-size="10" font-weight="600" fill="#7c3aed" letter-spacing="0.06em">PLATFORM SERVICES</text>
  <rect x="40" y="575" width="145" height="55" rx="8" fill="#ffffff" stroke="#d1d5db" stroke-width="1.5"/>
  <circle cx="70" cy="597" r="12" fill="#eff6ff" stroke="#bfdbfe" stroke-width="1"/>
  <text x="70" y="601" text-anchor="middle" font-size="9" fill="#2563eb">AR</text>
  <text x="110" y="596" font-size="12" font-weight="600" fill="#111827">Artifact Registry</text>
  <text x="110" y="611" font-size="11" fill="#6b7280">Container Images</text>
  <rect x="210" y="575" width="140" height="55" rx="8" fill="#ffffff" stroke="#d1d5db" stroke-width="1.5"/>
  <circle cx="240" cy="597" r="12" fill="#fef2f2" stroke="#fecaca" stroke-width="1"/>
  <text x="240" y="601" text-anchor="middle" font-size="10">🔑</text>
  <text x="278" y="596" font-size="12" font-weight="600" fill="#111827">Secret Manager</text>
  <text x="278" y="611" font-size="11" fill="#6b7280">App Secrets</text>
  <rect x="375" y="575" width="130" height="55" rx="8" fill="#ffffff" stroke="#d1d5db" stroke-width="1.5"/>
  <circle cx="405" cy="597" r="12" fill="#fff7ed" stroke="#fed7aa" stroke-width="1"/>
  <text x="405" y="601" text-anchor="middle" font-size="9" fill="#ea580c">PS</text>
  <text x="438" y="596" font-size="12" font-weight="600" fill="#111827">Pub/Sub</text>
  <text x="438" y="611" font-size="11" fill="#6b7280">Event Messaging</text>
  <rect x="530" y="575" width="145" height="55" rx="8" fill="#ffffff" stroke="#d1d5db" stroke-width="1.5"/>
  <circle cx="560" cy="597" r="12" fill="#f0fdf4" stroke="#bbf7d0" stroke-width="1"/>
  <text x="560" y="601" text-anchor="middle" font-size="9" fill="#16a34a">GCS</text>
  <text x="598" y="596" font-size="12" font-weight="600" fill="#111827">Cloud Storage</text>
  <text x="598" y="611" font-size="11" fill="#6b7280">LGTM Backends</text>
  <rect x="700" y="575" width="155" height="55" rx="8" fill="#ffffff" stroke="#d1d5db" stroke-width="1.5"/>
  <circle cx="730" cy="597" r="12" fill="#eff6ff" stroke="#bfdbfe" stroke-width="1"/>
  <text x="730" y="601" text-anchor="middle" font-size="9" fill="#2563eb">Hub</text>
  <text x="768" y="596" font-size="12" font-weight="600" fill="#111827">GKE Hub</text>
  <text x="768" y="611" font-size="11" fill="#6b7280">Multi-cluster Mgmt</text>
  <rect x="880" y="575" width="130" height="55" rx="8" fill="#ffffff" stroke="#fca5a5" stroke-width="1.5"/>
  <circle cx="910" cy="597" r="12" fill="#fef2f2" stroke="#fca5a5" stroke-width="1"/>
  <text x="910" y="601" text-anchor="middle" font-size="10">🔒</text>
  <text x="948" y="596" font-size="12" font-weight="600" fill="#111827">Cloud KMS</text>
  <text x="948" y="611" font-size="11" fill="#6b7280">Encryption Keys</text>
  <!-- Layer 5: Identity/OIDC -->
  <rect x="20" y="658" width="1160" height="90" rx="6" fill="#f0fdfa" fill-opacity="0.5" stroke="#5eead4" stroke-width="1" stroke-dasharray="6,4"/>
  <text x="32" y="673" font-size="10" font-weight="600" fill="#0d9488" letter-spacing="0.06em">IDENTITY &amp; ACCESS</text>
  <rect x="40" y="680" width="170" height="55" rx="8" fill="#ffffff" stroke="#5eead4" stroke-width="1.5"/>
  <circle cx="70" cy="702" r="12" fill="#f0fdfa" stroke="#5eead4" stroke-width="1"/>
  <text x="70" y="706" text-anchor="middle" font-size="9" fill="#0d9488">WI</text>
  <text x="115" y="701" font-size="12" font-weight="600" fill="#111827">Workload Identity</text>
  <text x="115" y="716" font-size="11" fill="#6b7280">Pod → GCP Auth</text>
  <rect x="240" y="680" width="180" height="55" rx="8" fill="#ffffff" stroke="#5eead4" stroke-width="1.5"/>
  <circle cx="270" cy="702" r="12" fill="#f0fdfa" stroke="#5eead4" stroke-width="1"/>
  <text x="270" y="706" text-anchor="middle" font-size="9" fill="#0d9488">WIF</text>
  <text x="315" y="701" font-size="12" font-weight="600" fill="#111827">OIDC Federation</text>
  <text x="315" y="716" font-size="11" fill="#6b7280">GitHub · TF Cloud</text>
  <rect x="450" y="680" width="165" height="55" rx="8" fill="#ffffff" stroke="#5eead4" stroke-width="1.5"/>
  <circle cx="480" cy="702" r="12" fill="#f0fdfa" stroke="#5eead4" stroke-width="1"/>
  <text x="480" y="706" text-anchor="middle" font-size="9" fill="#0d9488">SA</text>
  <text x="522" y="701" font-size="12" font-weight="600" fill="#111827">Service Accounts</text>
  <text x="522" y="716" font-size="11" fill="#6b7280">IAM · Impersonation</text>
  <rect x="645" y="680" width="165" height="55" rx="8" fill="#ffffff" stroke="#5eead4" stroke-width="1.5"/>
  <circle cx="675" cy="702" r="12" fill="#f0fdfa" stroke="#5eead4" stroke-width="1"/>
  <text x="675" y="706" text-anchor="middle" font-size="9" fill="#0d9488">ORG</text>
  <text x="717" y="701" font-size="12" font-weight="600" fill="#111827">Org Policies</text>
  <text x="717" y="716" font-size="11" fill="#6b7280">Domain Restrictions</text>
  <rect x="840" y="680" width="320" height="55" rx="8" fill="#ffffff" stroke="#5eead4" stroke-width="1.5"/>
  <circle cx="870" cy="702" r="12" fill="#f0fdfa" stroke="#5eead4" stroke-width="1"/>
  <text x="870" y="706" text-anchor="middle" font-size="9" fill="#0d9488">PRJ</text>
  <text x="912" y="698" font-size="12" font-weight="600" fill="#111827">Project Hierarchy</text>
  <text x="912" y="713" font-size="11" fill="#6b7280">network · shared · audit · logging</text>
  <text x="912" y="726" font-size="11" fill="#6b7280">core-dev · core-staging · core-prod</text>
  <!-- Arrows -->
  <path d="M 105,143 L 105,185" stroke="#dc2626" stroke-width="1.5" fill="none" marker-end="url(#arr-orange)"/>
  <path d="M 170,214 L 200,214" stroke="#dc2626" stroke-width="1.5" fill="none" marker-end="url(#arr-orange)"/>
  <path d="M 345,214 L 375,214" stroke="#2563eb" stroke-width="1.5" fill="none" marker-end="url(#arr-blue)"/>
  <path d="M 272,243 L 272,265 L 540,265 L 540,243" stroke="#2563eb" stroke-width="1" stroke-dasharray="4,3" fill="none" marker-end="url(#arr-blue)"/>
  <path d="M 272,243 L 272,280 L 390,280 L 390,312" stroke="#2563eb" stroke-width="1.5" fill="none" marker-end="url(#arr-blue)"/>
  <path d="M 160,484 L 200,484 L 200,408" stroke="#dc2626" stroke-width="1.5" stroke-dasharray="5,3" fill="none" marker-end="url(#arr-orange)"/>
  <path d="M 285,504 L 285,535 L 112,535 L 112,575" stroke="#6b7280" stroke-width="1.5" fill="none" marker-end="url(#arr-gray)"/>
  <path d="M 390,504 L 390,535 L 280,535 L 280,575" stroke="#6b7280" stroke-width="1.5" fill="none" marker-end="url(#arr-gray)"/>
  <path d="M 755,504 L 755,535 L 602,535 L 602,575" stroke="#16a34a" stroke-width="1.5" fill="none" marker-end="url(#arr-green)"/>
  <path d="M 475,504 L 475,535 L 440,535 L 440,575" stroke="#6b7280" stroke-width="1" stroke-dasharray="4,3" fill="none" marker-end="url(#arr-gray)"/>
  <path d="M 845,430 L 955,430 L 955,535 L 945,535 L 945,575" stroke="#dc2626" stroke-width="1" stroke-dasharray="4,3" fill="none" marker-end="url(#arr-orange)"/>
  <path d="M 602,575 L 718,504" stroke="#16a34a" stroke-width="1" stroke-dasharray="4,3" fill="none" marker-end="url(#arr-green)"/>
  <path d="M 420,707 L 450,707" stroke="#0d9488" stroke-width="1.5" fill="none" marker-end="url(#arr-blue)"/>
  <path d="M 272,143 L 272,155 L 330,155 L 330,680" stroke="#7c3aed" stroke-width="1" stroke-dasharray="4,3" fill="none" marker-end="url(#arr-purple)"/>
  <path d="M 447,143 L 447,155 L 340,155 L 340,680" stroke="#7c3aed" stroke-width="1" stroke-dasharray="4,3" fill="none" marker-end="url(#arr-purple)"/>
  <path d="M 125,680 L 125,650 L 285,650 L 285,504" stroke="#0d9488" stroke-width="1.5" fill="none" marker-end="url(#arr-blue)"/>
  <path d="M 760,243 L 760,265 L 580,265 L 580,312" stroke="#ea580c" stroke-width="1" stroke-dasharray="4,3" fill="none" marker-end="url(#arr-orange)"/>
  <path d="M 100,295 L 100,268 L 60,268 L 60,143" stroke="#16a34a" stroke-width="1" stroke-dasharray="4,3" fill="none" marker-end="url(#arr-green)"/>
  <!-- Legend -->
  <rect x="20" y="762" width="540" height="125" rx="6" fill="#f9fafb" stroke="#e5e7eb" stroke-width="1"/>
  <text x="32" y="779" font-size="11" font-weight="600" fill="#111827">Legend</text>
  <line x1="32" y1="793" x2="62" y2="793" stroke="#ea580c" stroke-width="1.5" marker-end="url(#arr-orange)"/>
  <text x="68" y="797" font-size="11" fill="#6b7280">Traffic / control flow</text>
  <line x1="200" y1="793" x2="230" y2="793" stroke="#2563eb" stroke-width="1.5" marker-end="url(#arr-blue)"/>
  <text x="236" y="797" font-size="11" fill="#6b7280">Data / request flow</text>
  <line x1="368" y1="793" x2="398" y2="793" stroke="#16a34a" stroke-width="1.5" marker-end="url(#arr-green)"/>
  <text x="404" y="797" font-size="11" fill="#6b7280">Storage read/write</text>
  <line x1="32" y1="815" x2="62" y2="815" stroke="#7c3aed" stroke-width="1.5" stroke-dasharray="4,2" marker-end="url(#arr-purple)"/>
  <text x="68" y="819" font-size="11" fill="#6b7280">OIDC/Auth federation</text>
  <line x1="200" y1="815" x2="230" y2="815" stroke="#6b7280" stroke-width="1.5" stroke-dasharray="4,2" marker-end="url(#arr-gray)"/>
  <text x="236" y="819" font-size="11" fill="#6b7280">Async / optional</text>
  <rect x="32" y="828" width="516" height="50" rx="4" fill="#eff6ff" stroke="#bfdbfe" stroke-width="1"/>
  <text x="290" y="844" text-anchor="middle" font-size="11" fill="#1d4ed8" font-weight="600">Multi-environment: dev · staging · prod</text>
  <text x="290" y="859" text-anchor="middle" font-size="10" fill="#6b7280">Each env has its own VPC, GKE cluster, and observability tenant</text>
  <text x="290" y="872" text-anchor="middle" font-size="10" fill="#6b7280">Terraform managed · Google Provider v7.7 · Terraform 1.0+</text>
  <rect x="880" y="762" width="300" height="125" rx="6" fill="#f9fafb" stroke="#e5e7eb" stroke-width="1"/>
  <text x="1030" y="779" text-anchor="middle" font-size="11" font-weight="600" fill="#111827">GCP Project Structure</text>
  <text x="892" y="798" font-size="10" fill="#6b7280">📁 Shared Folder</text>
  <text x="905" y="812" font-size="10" fill="#6b7280">├─ network-project (Shared VPC)</text>
  <text x="905" y="826" font-size="10" fill="#6b7280">├─ shared-project (GKE Hub)</text>
  <text x="905" y="840" font-size="10" fill="#6b7280">└─ logging-project</text>
  <text x="892" y="857" font-size="10" fill="#6b7280">📁 Core Folder</text>
  <text x="905" y="871" font-size="10" fill="#6b7280">├─ core-dev · core-staging · core-prod</text>
  <text x="892" y="884" font-size="10" fill="#6b7280">📁 Security: audit-project</text>
</svg>
