<svg xmlns="http://www.w3.org/2000/svg" viewBox="0 0 1000 714">
<style>text { font-family: -apple-system, "Segoe UI", "Helvetica Neue", Arial, sans-serif; fill: #f0f6fc; }</style>
<defs>
  <linearGradient id="bg" x1="0%" y1="0%" x2="100%" y2="100%">
    <stop offset="0%"   stop-color="#0d1117"/>
    <stop offset="50%"  stop-color="#161b22"/>
    <stop offset="100%" stop-color="#0d1117"/>
  </linearGradient>
  <radialGradient id="gb" cx="25%" cy="35%" r="40%">
    <stop offset="0%"   stop-color="rgba(88,166,255,0.10)"/>
    <stop offset="100%" stop-color="rgba(88,166,255,0)"/>
  </radialGradient>
  <radialGradient id="gp" cx="75%" cy="65%" r="38%">
    <stop offset="0%"   stop-color="rgba(188,140,255,0.10)"/>
    <stop offset="100%" stop-color="rgba(188,140,255,0)"/>
  </radialGradient>
  <linearGradient id="tg" x1="0%" y1="0%" x2="100%" y2="0%">
    <stop offset="0%"   stop-color="#58a6ff"/>
    <stop offset="100%" stop-color="#bc8cff"/>
  </linearGradient>
  <marker id="ab" markerWidth="8" markerHeight="6" refX="7" refY="3" orient="auto">
    <polygon points="0 0, 8 3, 0 6" fill="#58a6ff"/>
  </marker>
  <marker id="ag" markerWidth="8" markerHeight="6" refX="7" refY="3" orient="auto">
    <polygon points="0 0, 8 3, 0 6" fill="#3fb950"/>
  </marker>
  <marker id="ao" markerWidth="8" markerHeight="6" refX="7" refY="3" orient="auto">
    <polygon points="0 0, 8 3, 0 6" fill="#f78166"/>
  </marker>
  <marker id="ap" markerWidth="8" markerHeight="6" refX="7" refY="3" orient="auto">
    <polygon points="0 0, 8 3, 0 6" fill="#bc8cff"/>
  </marker>
  <filter id="glow">
    <feGaussianBlur stdDeviation="4" result="blur"/>
    <feMerge><feMergeNode in="blur"/><feMergeNode in="SourceGraphic"/></feMerge>
  </filter>
</defs>
<rect width="1000" height="714" fill="url(#bg)"/>
<rect width="1000" height="714" fill="url(#gb)"/>
<rect width="1000" height="714" fill="url(#gp)"/>
<text x="500" y="32" text-anchor="middle" font-size="20" font-weight="700" fill="url(#tg)">Portefaix Kubernetes Platform</text>
<text x="500" y="50" text-anchor="middle" font-size="11" fill="#8b949e">GitOps-driven multi-environment Kubernetes platform</text>
<rect x="14" y="58" width="972" height="60" rx="12" fill="rgba(255,255,255,0.03)"/>
<rect x="14" y="58" width="972" height="60" rx="12" fill="rgba(88,166,255,0.07)" stroke="rgba(88,166,255,0.35)" stroke-width="1"/>
<line x1="26" y1="59" x2="974" y2="59" stroke="rgba(255,255,255,0.18)" stroke-width="1"/>
<rect x="26" y="68" width="3" height="18" rx="1" fill="#58a6ff"/>
<text x="36" y="83" font-size="13" font-weight="700" fill="#58a6ff">GitOps &amp; Delivery</text>
<rect x="38" y="80" width="88" height="26" rx="6" fill="rgba(88,166,255,0.25)" stroke="#58a6ff" stroke-width="1.5" filter="url(#glow)"/>
<text x="82" y="97" text-anchor="middle" font-size="12" font-weight="700" fill="#58a6ff">ArgoCD</text>
<line x1="126" y1="93" x2="144" y2="93" stroke="#58a6ff" stroke-width="1.5" opacity="0.8" marker-end="url(#ab)"/>
<rect x="144" y="80" width="110" height="26" rx="5" fill="rgba(88,166,255,0.10)" stroke="rgba(88,166,255,0.35)" stroke-width="1"/>
<text x="199" y="97" text-anchor="middle" font-size="11" fill="#f0f6fc">Argo Workflows</text>
<line x1="254" y1="93" x2="262" y2="93" stroke="#58a6ff" stroke-width="1.5" opacity="0.8" marker-end="url(#ab)"/>
<rect x="262" y="80" width="110" height="26" rx="5" fill="rgba(88,166,255,0.10)" stroke="rgba(88,166,255,0.35)" stroke-width="1"/>
<text x="317" y="97" text-anchor="middle" font-size="11" fill="#f0f6fc">Argo Events</text>
<line x1="372" y1="93" x2="380" y2="93" stroke="#58a6ff" stroke-width="1.5" opacity="0.8" marker-end="url(#ab)"/>
<rect x="380" y="80" width="110" height="26" rx="5" fill="rgba(88,166,255,0.10)" stroke="rgba(88,166,255,0.35)" stroke-width="1"/>
<text x="435" y="97" text-anchor="middle" font-size="11" fill="#f0f6fc">Argo Rollouts</text>
<line x1="490" y1="93" x2="498" y2="93" stroke="#58a6ff" stroke-width="1.5" opacity="0.8" marker-end="url(#ab)"/>
<rect x="498" y="80" width="110" height="26" rx="5" fill="rgba(88,166,255,0.10)" stroke="rgba(88,166,255,0.35)" stroke-width="1"/>
<text x="553" y="97" text-anchor="middle" font-size="11" fill="#f0f6fc">Kargo</text>
<rect x="14" y="132" width="472" height="108" rx="12" fill="rgba(255,255,255,0.03)"/>
<rect x="14" y="132" width="472" height="108" rx="12" fill="rgba(88,166,255,0.06)" stroke="rgba(88,166,255,0.25)" stroke-width="1"/>
<line x1="26" y1="133" x2="474" y2="133" stroke="rgba(255,255,255,0.18)" stroke-width="1"/>
<rect x="26" y="142" width="3" height="18" rx="1" fill="#58a6ff"/>
<text x="36" y="157" font-size="13" font-weight="700" fill="#58a6ff">Networking &amp; Ingress</text>
<text x="32" y="176" font-size="9" font-weight="700" fill="#58a6ff">CNI</text>
<text x="104" y="176" font-size="11" fill="#e2e8f0">Cilium  ·  eBPF networking  ·  NetworkPolicy</text>
<text x="32" y="192" font-size="9" font-weight="700" fill="#58a6ff">Ingress</text>
<text x="104" y="192" font-size="11" fill="#e2e8f0">ingress-nginx  ·  Traefik  ·  Envoy Gateway</text>
<text x="32" y="208" font-size="9" font-weight="700" fill="#58a6ff">Gateway</text>
<text x="104" y="208" font-size="11" fill="#e2e8f0">kgateway  ·  Gateway API  ·  cert-manager (TLS)</text>
<text x="32" y="224" font-size="9" font-weight="700" fill="#58a6ff">Egress</text>
<text x="104" y="224" font-size="11" fill="#e2e8f0">External DNS  ·  Cloudflare Tunnel  ·  Tailscale</text>
<rect x="14" y="248" width="472" height="168" rx="12" fill="rgba(255,255,255,0.03)"/>
<rect x="14" y="248" width="472" height="168" rx="12" fill="rgba(247,129,102,0.06)" stroke="rgba(247,129,102,0.25)" stroke-width="1"/>
<line x1="26" y1="249" x2="474" y2="249" stroke="rgba(255,255,255,0.18)" stroke-width="1"/>
<rect x="26" y="258" width="3" height="18" rx="1" fill="#f78166"/>
<text x="36" y="273" font-size="13" font-weight="700" fill="#f78166">Security &amp; Policy</text>
<text x="32" y="292" font-size="9" font-weight="700" fill="#f78166">Runtime</text>
<text x="104" y="292" font-size="11" fill="#e2e8f0">Falco  ·  Tetragon  ·  eBPF-based detection</text>
<text x="32" y="308" font-size="9" font-weight="700" fill="#f78166">Policy</text>
<text x="104" y="308" font-size="11" fill="#e2e8f0">Kyverno  ·  Kubewarden  ·  OPA/Rego policies</text>
<text x="32" y="324" font-size="9" font-weight="700" fill="#f78166">Secrets</text>
<text x="104" y="324" font-size="11" fill="#e2e8f0">Vault  ·  External Secrets  ·  Sealed Secrets</text>
<text x="32" y="340" font-size="9" font-weight="700" fill="#f78166">Scanning</text>
<text x="104" y="340" font-size="11" fill="#e2e8f0">Trivy  ·  SBOM operator  ·  vulnerability-operator</text>
<text x="32" y="356" font-size="9" font-weight="700" fill="#f78166">TLS/PKI</text>
<text x="104" y="356" font-size="11" fill="#e2e8f0">Cert-Manager  ·  Let's Encrypt  ·  auto-rotation</text>
<text x="32" y="372" font-size="9" font-weight="700" fill="#f78166">Identity</text>
<text x="104" y="372" font-size="11" fill="#e2e8f0">Authentik  ·  Dex  ·  OIDC / SAML</text>
<text x="32" y="388" font-size="9" font-weight="700" fill="#f78166">ZeroTrust</text>
<text x="104" y="388" font-size="11" fill="#e2e8f0">Paralus  ·  workload identity  ·  mTLS</text>
<rect x="14" y="424" width="472" height="126" rx="12" fill="rgba(255,255,255,0.03)"/>
<rect x="14" y="424" width="472" height="126" rx="12" fill="rgba(63,185,80,0.06)" stroke="rgba(63,185,80,0.25)" stroke-width="1"/>
<line x1="26" y1="425" x2="474" y2="425" stroke="rgba(255,255,255,0.18)" stroke-width="1"/>
<rect x="26" y="434" width="3" height="18" rx="1" fill="#3fb950"/>
<text x="36" y="449" font-size="13" font-weight="700" fill="#3fb950">Storage &amp; Data</text>
<text x="32" y="468" font-size="9" font-weight="700" fill="#3fb950">Block/NFS</text>
<text x="104" y="468" font-size="11" fill="#e2e8f0">Longhorn  ·  EBS / EFS / FSx CSI  ·  NFS</text>
<text x="32" y="484" font-size="9" font-weight="700" fill="#3fb950">Relational</text>
<text x="104" y="484" font-size="11" fill="#e2e8f0">CloudNativePG  ·  MySQL  ·  MariaDB</text>
<text x="32" y="500" font-size="9" font-weight="700" fill="#3fb950">Analytics</text>
<text x="104" y="500" font-size="11" fill="#e2e8f0">ClickHouse  ·  GreptimeDB  ·  Quickwit</text>
<text x="32" y="516" font-size="9" font-weight="700" fill="#3fb950">NoSQL</text>
<text x="104" y="516" font-size="11" fill="#e2e8f0">Qdrant  ·  Dragonfly  ·  NATS  ·  Meilisearch</text>
<text x="32" y="532" font-size="9" font-weight="700" fill="#3fb950">Backup</text>
<text x="104" y="532" font-size="11" fill="#e2e8f0">Velero  ·  automated snapshots  ·  S3 / GCS</text>
<rect x="500" y="132" width="486" height="200" rx="12" fill="rgba(255,255,255,0.03)"/>
<rect x="500" y="132" width="486" height="200" rx="12" fill="rgba(188,140,255,0.06)" stroke="rgba(188,140,255,0.25)" stroke-width="1"/>
<line x1="512" y1="133" x2="974" y2="133" stroke="rgba(255,255,255,0.18)" stroke-width="1"/>
<rect x="512" y="142" width="3" height="18" rx="1" fill="#bc8cff"/>
<text x="522" y="157" font-size="13" font-weight="700" fill="#bc8cff">Observability</text>
<text x="518" y="176" font-size="9" font-weight="700" fill="#bc8cff">Metrics</text>
<text x="590" y="176" font-size="11" fill="#e2e8f0">Prometheus Stack  ·  Mimir  ·  Grafana</text>
<text x="518" y="192" font-size="9" font-weight="700" fill="#bc8cff">Logs</text>
<text x="590" y="192" font-size="11" fill="#e2e8f0">Loki  ·  FluentBit  ·  Vector  ·  Alloy</text>
<text x="518" y="208" font-size="9" font-weight="700" fill="#bc8cff">Traces</text>
<text x="590" y="208" font-size="11" fill="#e2e8f0">Tempo  ·  OTel Collector  ·  Beyla</text>
<text x="518" y="224" font-size="9" font-weight="700" fill="#bc8cff">Profiles</text>
<text x="590" y="224" font-size="11" fill="#e2e8f0">Pyroscope  ·  Chip  ·  continuous profiling</text>
<text x="518" y="240" font-size="9" font-weight="700" fill="#bc8cff">SLOs</text>
<text x="590" y="240" font-size="11" fill="#e2e8f0">Pyrra  ·  Sloth  ·  service-levels  ·  DORA</text>
<text x="518" y="256" font-size="9" font-weight="700" fill="#bc8cff">Alerting</text>
<text x="590" y="256" font-size="11" fill="#e2e8f0">Robusta  ·  Keep  ·  multi-channel routing</text>
<text x="518" y="272" font-size="9" font-weight="700" fill="#bc8cff">FinOps</text>
<text x="590" y="272" font-size="11" fill="#e2e8f0">OpenCost  ·  cost attribution  ·  budgets</text>
<text x="518" y="288" font-size="9" font-weight="700" fill="#bc8cff">Health</text>
<text x="590" y="288" font-size="11" fill="#e2e8f0">Gatus  ·  Signoz  ·  blackbox-exporter</text>
<text x="518" y="304" font-size="9" font-weight="700" fill="#bc8cff">OTel Ops</text>
<text x="590" y="304" font-size="11" fill="#e2e8f0">otel-operator  ·  Datadog bridge  ·  exporters</text>
<rect x="500" y="340" width="486" height="84" rx="12" fill="rgba(255,255,255,0.03)"/>
<rect x="500" y="340" width="486" height="84" rx="12" fill="rgba(234,179,8,0.06)" stroke="rgba(234,179,8,0.25)" stroke-width="1"/>
<line x1="512" y1="341" x2="974" y2="341" stroke="rgba(255,255,255,0.18)" stroke-width="1"/>
<rect x="512" y="350" width="3" height="18" rx="1" fill="#eab308"/>
<text x="522" y="365" font-size="13" font-weight="700" fill="#eab308">Scaling</text>
<text x="518" y="384" font-size="9" font-weight="700" fill="#eab308">Autoscaling</text>
<text x="590" y="384" font-size="11" fill="#e2e8f0">Karpenter  ·  KEDA  ·  Cluster Autoscaler  ·  VPA</text>
<text x="518" y="400" font-size="9" font-weight="700" fill="#eab308">Progressive</text>
<text x="590" y="400" font-size="11" fill="#e2e8f0">Argo Rollouts  ·  Kargo  ·  Keptn  ·  Descheduler</text>
<rect x="500" y="432" width="486" height="100" rx="12" fill="rgba(255,255,255,0.03)"/>
<rect x="500" y="432" width="486" height="100" rx="12" fill="rgba(168,85,247,0.06)" stroke="rgba(168,85,247,0.25)" stroke-width="1"/>
<line x1="512" y1="433" x2="974" y2="433" stroke="rgba(255,255,255,0.18)" stroke-width="1"/>
<rect x="512" y="442" width="3" height="18" rx="1" fill="#a855f7"/>
<text x="522" y="457" font-size="13" font-weight="700" fill="#a855f7">AI / ML</text>
<text x="518" y="476" font-size="9" font-weight="700" fill="#a855f7">Diagnostics</text>
<text x="590" y="476" font-size="11" fill="#e2e8f0">K8sGPT  ·  AI-powered cluster analysis</text>
<text x="518" y="492" font-size="9" font-weight="700" fill="#a855f7">Inference</text>
<text x="590" y="492" font-size="11" fill="#e2e8f0">Ollama  ·  local LLM serving</text>
<text x="518" y="508" font-size="9" font-weight="700" fill="#a855f7">Agents</text>
<text x="590" y="508" font-size="11" fill="#e2e8f0">kagent  ·  MCP protocol  ·  OpenFeature operator</text>
<rect x="500" y="540" width="486" height="98" rx="12" fill="rgba(255,255,255,0.03)"/>
<rect x="500" y="540" width="486" height="98" rx="12" fill="rgba(6,182,212,0.06)" stroke="rgba(6,182,212,0.25)" stroke-width="1"/>
<line x1="512" y1="541" x2="974" y2="541" stroke="rgba(255,255,255,0.18)" stroke-width="1"/>
<rect x="512" y="550" width="3" height="18" rx="1" fill="#06b6d4"/>
<text x="522" y="565" font-size="13" font-weight="700" fill="#06b6d4">Platform</text>
<text x="518" y="584" font-size="9" font-weight="700" fill="#06b6d4">KRM</text>
<text x="590" y="584" font-size="11" fill="#e2e8f0">ACK (AWS Controllers)  ·  kro  ·  CRD management</text>
<text x="518" y="600" font-size="9" font-weight="700" fill="#06b6d4">IDP</text>
<text x="590" y="600" font-size="11" fill="#e2e8f0">Port.dev  ·  internal developer portal</text>
<text x="518" y="616" font-size="9" font-weight="700" fill="#06b6d4">Chaos</text>
<text x="590" y="616" font-size="11" fill="#e2e8f0">Chaos Mesh  ·  Litmus Chaos  ·  reliability testing</text>
<rect x="14" y="646" width="972" height="46" rx="12" fill="rgba(255,255,255,0.03)"/>
<rect x="14" y="646" width="972" height="46" rx="12" fill="rgba(48,54,61,0.6)" stroke="rgba(99,110,123,0.4)" stroke-width="1"/>
<line x1="26" y1="647" x2="974" y2="647" stroke="rgba(255,255,255,0.18)" stroke-width="1"/>
<rect x="26" y="656" width="3" height="18" rx="1" fill="#8b949e"/>
<text x="36" y="671" font-size="13" font-weight="700" fill="#8b949e">Applications</text>
<text x="38" y="684" font-size="11" fill="#94a3b8">Podinfo  (dev · staging · prod)  ·  Homepage  ·  Pizza (demo)  ·  open-feature-demo  ·  Chaos Mesh  ·  Litmus Chaos</text>
</svg>
