<svg xmlns="http://www.w3.org/2000/svg" viewBox="0 0 1200 920" width="1200" height="920">
<style>text { font-family: 'Courier New', 'Lucida Console', monospace; }</style>
<defs>
  <pattern id="grid" width="30" height="30" patternUnits="userSpaceOnUse">
    <path d="M 30 0 L 0 0 0 30" fill="none" stroke="#112240" stroke-width="0.5"/>
  </pattern>
  <marker id="arr-blue" markerWidth="8" markerHeight="6" refX="7" refY="3" orient="auto">
    <polygon points="0 0, 8 3, 0 6" fill="#3b82f6"/>
  </marker>
  <marker id="arr-cyan" markerWidth="8" markerHeight="6" refX="7" refY="3" orient="auto">
    <polygon points="0 0, 8 3, 0 6" fill="#00b4d8"/>
  </marker>
  <marker id="arr-orange" markerWidth="8" markerHeight="6" refX="7" refY="3" orient="auto">
    <polygon points="0 0, 8 3, 0 6" fill="#f77f00"/>
  </marker>
  <marker id="arr-green" markerWidth="8" markerHeight="6" refX="7" refY="3" orient="auto">
    <polygon points="0 0, 8 3, 0 6" fill="#06d6a0"/>
  </marker>
  <marker id="arr-purple" markerWidth="8" markerHeight="6" refX="7" refY="3" orient="auto">
    <polygon points="0 0, 8 3, 0 6" fill="#7c3aed"/>
  </marker>
</defs>
<rect width="1200" height="920" fill="#0a1628"/>
<rect width="1200" height="920" fill="url(#grid)" opacity="0.6"/>
<text x="25" y="34" text-anchor="start" fill="#ffffff" font-size="22" font-weight="700">PORTEFAIX PLATFORM</text>
<text x="25" y="52" text-anchor="start" fill="#48cae4" font-size="12" font-weight="normal">Cloud-Native Kubernetes  ·  GitOps  ·  eBPF  ·  Multi-Cloud</text>
<rect x="852" y="13" width="100" height="22" rx="3" fill="#1e3a5f" stroke="#3b82f6" stroke-width="1"/>
<text x="902" y="28" text-anchor="middle" fill="#93c5fd" font-size="10" font-weight="normal">CNCF STACK</text>
<rect x="960" y="13" width="60" height="22" rx="3" fill="#7c2d12" stroke="#f77f00" stroke-width="1"/>
<text x="990" y="28" text-anchor="middle" fill="#fef3c7" font-size="10" font-weight="normal">eBPF</text>
<rect x="1028" y="13" width="120" height="22" rx="3" fill="#1e3a5f" stroke="#06d6a0" stroke-width="1"/>
<text x="1088" y="28" text-anchor="middle" fill="#6ee7b7" font-size="10" font-weight="normal">MULTI-CLOUD</text>
<rect x="1156" y="13" width="26" height="22" rx="3" fill="#1e3a5f" stroke="#48cae4" stroke-width="1"/>
<text x="1169" y="28" text-anchor="middle" fill="#caf0f8" font-size="10" font-weight="normal">v1</text>
<rect x="20" y="65" width="1160" height="64" rx="2" fill="none" stroke="#3b82f6" stroke-width="2"/>
<text x="30" y="78" text-anchor="start" fill="#3b82f6" font-size="10" font-weight="700">GITOPS FOUNDATION</text>
<rect x="304" y="86" width="105" height="22" rx="2" fill="#0d1f3c" stroke="#3b82f6" stroke-width="1"/>
<text x="356" y="101" text-anchor="middle" fill="#caf0f8" font-size="10" font-weight="normal">ArgoCD</text>
<rect x="426" y="86" width="105" height="22" rx="2" fill="#0d1f3c" stroke="#3b82f6" stroke-width="1"/>
<text x="478" y="101" text-anchor="middle" fill="#caf0f8" font-size="10" font-weight="normal">Argo Workflows</text>
<rect x="548" y="86" width="105" height="22" rx="2" fill="#0d1f3c" stroke="#3b82f6" stroke-width="1"/>
<text x="600" y="101" text-anchor="middle" fill="#caf0f8" font-size="10" font-weight="normal">Argo Rollouts</text>
<rect x="670" y="86" width="105" height="22" rx="2" fill="#0d1f3c" stroke="#3b82f6" stroke-width="1"/>
<text x="722" y="101" text-anchor="middle" fill="#caf0f8" font-size="10" font-weight="normal">Argo Events</text>
<rect x="792" y="86" width="105" height="22" rx="2" fill="#0d1f3c" stroke="#3b82f6" stroke-width="1"/>
<text x="844" y="101" text-anchor="middle" fill="#caf0f8" font-size="10" font-weight="normal">Kargo</text>
<line x1="430" y1="129" x2="430" y2="144" stroke="#3b82f6" stroke-width="1.5" marker-end="url(#arr-blue)" stroke-dasharray="4,2"/>
<line x1="600" y1="129" x2="600" y2="144" stroke="#3b82f6" stroke-width="1.5" marker-end="url(#arr-blue)" stroke-dasharray="4,2"/>
<line x1="770" y1="129" x2="770" y2="144" stroke="#3b82f6" stroke-width="1.5" marker-end="url(#arr-blue)" stroke-dasharray="4,2"/>
<rect x="20" y="144" width="1160" height="95" rx="2" fill="none" stroke="#0891b2" stroke-width="2"/>
<text x="30" y="157" text-anchor="start" fill="#0891b2" font-size="10" font-weight="700">NETWORKING</text>
<text x="28" y="167" text-anchor="start" fill="#48cae4" font-size="9" font-weight="normal">INGRESS · GATEWAY · CERT · DNS</text>
<rect x="28" y="171" width="100" height="22" rx="2" fill="#0d1f3c" stroke="#f77f00" stroke-width="1"/>
<text x="78" y="186" text-anchor="middle" fill="#caf0f8" font-size="10" font-weight="normal">Cilium</text>
<rect x="136" y="171" width="100" height="22" rx="2" fill="#0d1f3c" stroke="#0891b2" stroke-width="1"/>
<text x="186" y="186" text-anchor="middle" fill="#caf0f8" font-size="10" font-weight="normal">K-Gateway</text>
<rect x="244" y="171" width="100" height="22" rx="2" fill="#0d1f3c" stroke="#0891b2" stroke-width="1"/>
<text x="294" y="186" text-anchor="middle" fill="#caf0f8" font-size="10" font-weight="normal">Envoy-GW</text>
<rect x="352" y="171" width="100" height="22" rx="2" fill="#0d1f3c" stroke="#0891b2" stroke-width="1"/>
<text x="402" y="186" text-anchor="middle" fill="#caf0f8" font-size="10" font-weight="normal">Traefik</text>
<rect x="460" y="171" width="100" height="22" rx="2" fill="#0d1f3c" stroke="#0891b2" stroke-width="1"/>
<text x="510" y="186" text-anchor="middle" fill="#caf0f8" font-size="10" font-weight="normal">Cert-Mgr</text>
<rect x="568" y="171" width="100" height="22" rx="2" fill="#0d1f3c" stroke="#0891b2" stroke-width="1"/>
<text x="618" y="186" text-anchor="middle" fill="#caf0f8" font-size="10" font-weight="normal">Ext-DNS</text>
<text x="28" y="198" text-anchor="start" fill="#48cae4" font-size="9" font-weight="normal">ACCESS · MESSAGING</text>
<rect x="28" y="202" width="100" height="22" rx="2" fill="#0d1f3c" stroke="#0891b2" stroke-width="1"/>
<text x="78" y="217" text-anchor="middle" fill="#caf0f8" font-size="10" font-weight="normal">CF-Tunnel</text>
<rect x="136" y="202" width="100" height="22" rx="2" fill="#0d1f3c" stroke="#0891b2" stroke-width="1"/>
<text x="186" y="217" text-anchor="middle" fill="#caf0f8" font-size="10" font-weight="normal">Tailscale VPN</text>
<rect x="244" y="202" width="100" height="22" rx="2" fill="#0d1f3c" stroke="#0891b2" stroke-width="1"/>
<text x="294" y="217" text-anchor="middle" fill="#caf0f8" font-size="10" font-weight="normal">NATS</text>
<line x1="430" y1="239" x2="430" y2="254" stroke="#0891b2" stroke-width="1.5" marker-end="url(#arr-cyan)"/>
<line x1="600" y1="239" x2="600" y2="254" stroke="#0891b2" stroke-width="1.5" marker-end="url(#arr-cyan)"/>
<line x1="770" y1="239" x2="770" y2="254" stroke="#0891b2" stroke-width="1.5" marker-end="url(#arr-cyan)"/>
<rect x="20" y="254" width="1160" height="110" rx="2" fill="none" stroke="#dc2626" stroke-width="2"/>
<text x="30" y="267" text-anchor="start" fill="#dc2626" font-size="10" font-weight="700">SECURITY</text>
<text x="28" y="277" text-anchor="start" fill="#48cae4" font-size="9" font-weight="normal">IDENTITY</text>
<text x="276" y="277" text-anchor="start" fill="#48cae4" font-size="9" font-weight="normal">POLICY</text>
<text x="620" y="277" text-anchor="start" fill="#48cae4" font-size="9" font-weight="normal">RUNTIME</text>
<rect x="28" y="281" width="100" height="22" rx="2" fill="#0d1f3c" stroke="#dc2626" stroke-width="1"/>
<text x="78" y="296" text-anchor="middle" fill="#caf0f8" font-size="10" font-weight="normal">Authentik</text>
<rect x="136" y="281" width="100" height="22" rx="2" fill="#0d1f3c" stroke="#dc2626" stroke-width="1"/>
<text x="186" y="296" text-anchor="middle" fill="#caf0f8" font-size="10" font-weight="normal">Dex</text>
<rect x="276" y="281" width="100" height="22" rx="2" fill="#0d1f3c" stroke="#dc2626" stroke-width="1"/>
<text x="326" y="296" text-anchor="middle" fill="#caf0f8" font-size="10" font-weight="normal">Kyverno</text>
<rect x="384" y="281" width="100" height="22" rx="2" fill="#0d1f3c" stroke="#dc2626" stroke-width="1"/>
<text x="434" y="296" text-anchor="middle" fill="#caf0f8" font-size="10" font-weight="normal">Kubewarden</text>
<rect x="492" y="281" width="100" height="22" rx="2" fill="#0d1f3c" stroke="#dc2626" stroke-width="1"/>
<text x="542" y="296" text-anchor="middle" fill="#caf0f8" font-size="10" font-weight="normal">Kube-Bench</text>
<rect x="620" y="281" width="100" height="22" rx="2" fill="#0d1f3c" stroke="#f77f00" stroke-width="1"/>
<text x="670" y="296" text-anchor="middle" fill="#caf0f8" font-size="10" font-weight="normal">Falco</text>
<rect x="728" y="281" width="100" height="22" rx="2" fill="#0d1f3c" stroke="#f77f00" stroke-width="1"/>
<text x="778" y="296" text-anchor="middle" fill="#caf0f8" font-size="10" font-weight="normal">Tetragon</text>
<text x="28" y="311" text-anchor="start" fill="#48cae4" font-size="9" font-weight="normal">SECRETS</text>
<text x="384" y="311" text-anchor="start" fill="#48cae4" font-size="9" font-weight="normal">SCANNING · ZERO-TRUST</text>
<rect x="28" y="315" width="100" height="22" rx="2" fill="#0d1f3c" stroke="#dc2626" stroke-width="1"/>
<text x="78" y="330" text-anchor="middle" fill="#caf0f8" font-size="10" font-weight="normal">Vault</text>
<rect x="136" y="315" width="100" height="22" rx="2" fill="#0d1f3c" stroke="#dc2626" stroke-width="1"/>
<text x="186" y="330" text-anchor="middle" fill="#caf0f8" font-size="10" font-weight="normal">Ext-Secrets</text>
<rect x="244" y="315" width="100" height="22" rx="2" fill="#0d1f3c" stroke="#dc2626" stroke-width="1"/>
<text x="294" y="330" text-anchor="middle" fill="#caf0f8" font-size="10" font-weight="normal">Sealed-Secrets</text>
<rect x="384" y="315" width="100" height="22" rx="2" fill="#0d1f3c" stroke="#dc2626" stroke-width="1"/>
<text x="434" y="330" text-anchor="middle" fill="#caf0f8" font-size="10" font-weight="normal">Trivy-Operator</text>
<rect x="492" y="315" width="100" height="22" rx="2" fill="#0d1f3c" stroke="#dc2626" stroke-width="1"/>
<text x="542" y="330" text-anchor="middle" fill="#caf0f8" font-size="10" font-weight="normal">SBOM-Operator</text>
<rect x="600" y="315" width="100" height="22" rx="2" fill="#0d1f3c" stroke="#dc2626" stroke-width="1"/>
<text x="650" y="330" text-anchor="middle" fill="#caf0f8" font-size="10" font-weight="normal">Paralus</text>
<line x1="430" y1="364" x2="430" y2="379" stroke="#7c3aed" stroke-width="1.5" marker-end="url(#arr-purple)"/>
<line x1="600" y1="364" x2="600" y2="379" stroke="#7c3aed" stroke-width="1.5" marker-end="url(#arr-purple)"/>
<line x1="770" y1="364" x2="770" y2="379" stroke="#7c3aed" stroke-width="1.5" marker-end="url(#arr-purple)"/>
<rect x="20" y="379" width="1160" height="145" rx="2" fill="none" stroke="#7c3aed" stroke-width="2"/>
<text x="30" y="392" text-anchor="start" fill="#7c3aed" font-size="10" font-weight="700">OBSERVABILITY</text>
<text x="28" y="402" text-anchor="start" fill="#48cae4" font-size="9" font-weight="normal">METRICS · VISUALIZATION</text>
<rect x="28" y="406" width="100" height="22" rx="2" fill="#0d1f3c" stroke="#7c3aed" stroke-width="1"/>
<text x="78" y="421" text-anchor="middle" fill="#caf0f8" font-size="10" font-weight="normal">Prometheus</text>
<rect x="136" y="406" width="100" height="22" rx="2" fill="#0d1f3c" stroke="#7c3aed" stroke-width="1"/>
<text x="186" y="421" text-anchor="middle" fill="#caf0f8" font-size="10" font-weight="normal">Alertmanager</text>
<rect x="244" y="406" width="100" height="22" rx="2" fill="#0d1f3c" stroke="#7c3aed" stroke-width="1"/>
<text x="294" y="421" text-anchor="middle" fill="#caf0f8" font-size="10" font-weight="normal">Mimir</text>
<rect x="352" y="406" width="100" height="22" rx="2" fill="#0d1f3c" stroke="#7c3aed" stroke-width="1"/>
<text x="402" y="421" text-anchor="middle" fill="#caf0f8" font-size="10" font-weight="normal">Grafana</text>
<rect x="460" y="406" width="100" height="22" rx="2" fill="#0d1f3c" stroke="#7c3aed" stroke-width="1"/>
<text x="510" y="421" text-anchor="middle" fill="#caf0f8" font-size="10" font-weight="normal">Grafana-Op</text>
<rect x="568" y="406" width="100" height="22" rx="2" fill="#0d1f3c" stroke="#7c3aed" stroke-width="1"/>
<text x="618" y="421" text-anchor="middle" fill="#caf0f8" font-size="10" font-weight="normal">SignOz</text>
<text x="28" y="433" text-anchor="start" fill="#48cae4" font-size="9" font-weight="normal">LOGGING · TRACING · PROFILING</text>
<rect x="28" y="437" width="100" height="22" rx="2" fill="#0d1f3c" stroke="#7c3aed" stroke-width="1"/>
<text x="78" y="452" text-anchor="middle" fill="#caf0f8" font-size="10" font-weight="normal">Loki</text>
<rect x="136" y="437" width="100" height="22" rx="2" fill="#0d1f3c" stroke="#7c3aed" stroke-width="1"/>
<text x="186" y="452" text-anchor="middle" fill="#caf0f8" font-size="10" font-weight="normal">Fluentbit</text>
<rect x="244" y="437" width="100" height="22" rx="2" fill="#0d1f3c" stroke="#7c3aed" stroke-width="1"/>
<text x="294" y="452" text-anchor="middle" fill="#caf0f8" font-size="10" font-weight="normal">Vector</text>
<rect x="352" y="437" width="100" height="22" rx="2" fill="#0d1f3c" stroke="#7c3aed" stroke-width="1"/>
<text x="402" y="452" text-anchor="middle" fill="#caf0f8" font-size="10" font-weight="normal">Alloy</text>
<rect x="460" y="437" width="100" height="22" rx="2" fill="#0d1f3c" stroke="#7c3aed" stroke-width="1"/>
<text x="510" y="452" text-anchor="middle" fill="#caf0f8" font-size="10" font-weight="normal">Tempo</text>
<rect x="568" y="437" width="100" height="22" rx="2" fill="#0d1f3c" stroke="#7c3aed" stroke-width="1"/>
<text x="618" y="452" text-anchor="middle" fill="#caf0f8" font-size="10" font-weight="normal">Pyroscope</text>
<rect x="676" y="437" width="100" height="22" rx="2" fill="#0d1f3c" stroke="#f77f00" stroke-width="1"/>
<text x="726" y="452" text-anchor="middle" fill="#caf0f8" font-size="10" font-weight="normal">Beyla</text>
<text x="28" y="463" text-anchor="start" fill="#48cae4" font-size="9" font-weight="normal">OPENTELEMETRY · SLO</text>
<rect x="28" y="467" width="100" height="22" rx="2" fill="#0d1f3c" stroke="#7c3aed" stroke-width="1"/>
<text x="78" y="482" text-anchor="middle" fill="#caf0f8" font-size="10" font-weight="normal">OTel-Operator</text>
<rect x="136" y="467" width="100" height="22" rx="2" fill="#0d1f3c" stroke="#7c3aed" stroke-width="1"/>
<text x="186" y="482" text-anchor="middle" fill="#caf0f8" font-size="10" font-weight="normal">OTel-Collector</text>
<rect x="244" y="467" width="100" height="22" rx="2" fill="#0d1f3c" stroke="#7c3aed" stroke-width="1"/>
<text x="294" y="482" text-anchor="middle" fill="#caf0f8" font-size="10" font-weight="normal">Pyrra</text>
<rect x="352" y="467" width="100" height="22" rx="2" fill="#0d1f3c" stroke="#7c3aed" stroke-width="1"/>
<text x="402" y="482" text-anchor="middle" fill="#caf0f8" font-size="10" font-weight="normal">Sloth</text>
<line x1="430" y1="524" x2="430" y2="539" stroke="#06d6a0" stroke-width="1.5" marker-end="url(#arr-green)"/>
<line x1="600" y1="524" x2="600" y2="539" stroke="#06d6a0" stroke-width="1.5" marker-end="url(#arr-green)"/>
<line x1="770" y1="524" x2="770" y2="539" stroke="#06d6a0" stroke-width="1.5" marker-end="url(#arr-green)"/>
<rect x="20" y="539" width="1160" height="108" rx="2" fill="none" stroke="#059669" stroke-width="2"/>
<text x="30" y="552" text-anchor="start" fill="#059669" font-size="10" font-weight="700">SYSTEM &amp; DATA</text>
<text x="28" y="562" text-anchor="start" fill="#48cae4" font-size="9" font-weight="normal">DATABASES · SEARCH · VECTOR</text>
<rect x="28" y="566" width="100" height="22" rx="2" fill="#0d1f3c" stroke="#059669" stroke-width="1"/>
<text x="78" y="581" text-anchor="middle" fill="#caf0f8" font-size="10" font-weight="normal">CloudNativePG</text>
<rect x="136" y="566" width="100" height="22" rx="2" fill="#0d1f3c" stroke="#059669" stroke-width="1"/>
<text x="186" y="581" text-anchor="middle" fill="#caf0f8" font-size="10" font-weight="normal">Dragonfly</text>
<rect x="244" y="566" width="100" height="22" rx="2" fill="#0d1f3c" stroke="#059669" stroke-width="1"/>
<text x="294" y="581" text-anchor="middle" fill="#caf0f8" font-size="10" font-weight="normal">MariaDB</text>
<rect x="352" y="566" width="100" height="22" rx="2" fill="#0d1f3c" stroke="#059669" stroke-width="1"/>
<text x="402" y="581" text-anchor="middle" fill="#caf0f8" font-size="10" font-weight="normal">ClickHouse</text>
<rect x="460" y="566" width="100" height="22" rx="2" fill="#0d1f3c" stroke="#059669" stroke-width="1"/>
<text x="510" y="581" text-anchor="middle" fill="#caf0f8" font-size="10" font-weight="normal">Qdrant</text>
<rect x="568" y="566" width="100" height="22" rx="2" fill="#0d1f3c" stroke="#059669" stroke-width="1"/>
<text x="618" y="581" text-anchor="middle" fill="#caf0f8" font-size="10" font-weight="normal">Meilisearch</text>
<text x="28" y="592" text-anchor="start" fill="#48cae4" font-size="9" font-weight="normal">SCALING · STORAGE · BACKUP</text>
<rect x="28" y="596" width="100" height="22" rx="2" fill="#0d1f3c" stroke="#059669" stroke-width="1"/>
<text x="78" y="611" text-anchor="middle" fill="#caf0f8" font-size="10" font-weight="normal">KEDA</text>
<rect x="136" y="596" width="100" height="22" rx="2" fill="#0d1f3c" stroke="#059669" stroke-width="1"/>
<text x="186" y="611" text-anchor="middle" fill="#caf0f8" font-size="10" font-weight="normal">Karpenter</text>
<rect x="244" y="596" width="100" height="22" rx="2" fill="#0d1f3c" stroke="#059669" stroke-width="1"/>
<text x="294" y="611" text-anchor="middle" fill="#caf0f8" font-size="10" font-weight="normal">VPA</text>
<rect x="352" y="596" width="100" height="22" rx="2" fill="#0d1f3c" stroke="#059669" stroke-width="1"/>
<text x="402" y="611" text-anchor="middle" fill="#caf0f8" font-size="10" font-weight="normal">Descheduler</text>
<rect x="460" y="596" width="100" height="22" rx="2" fill="#0d1f3c" stroke="#059669" stroke-width="1"/>
<text x="510" y="611" text-anchor="middle" fill="#caf0f8" font-size="10" font-weight="normal">Longhorn</text>
<rect x="568" y="596" width="100" height="22" rx="2" fill="#0d1f3c" stroke="#059669" stroke-width="1"/>
<text x="618" y="611" text-anchor="middle" fill="#caf0f8" font-size="10" font-weight="normal">Velero</text>
<rect x="676" y="596" width="100" height="22" rx="2" fill="#0d1f3c" stroke="#059669" stroke-width="1"/>
<text x="726" y="611" text-anchor="middle" fill="#caf0f8" font-size="10" font-weight="normal">Kured</text>
<line x1="430" y1="647" x2="430" y2="662" stroke="#f77f00" stroke-width="1.5" marker-end="url(#arr-orange)"/>
<line x1="600" y1="647" x2="600" y2="662" stroke="#f77f00" stroke-width="1.5" marker-end="url(#arr-orange)"/>
<line x1="770" y1="647" x2="770" y2="662" stroke="#f77f00" stroke-width="1.5" marker-end="url(#arr-orange)"/>
<rect x="20" y="662" width="1160" height="72" rx="2" fill="none" stroke="#d97706" stroke-width="2"/>
<text x="30" y="675" text-anchor="start" fill="#d97706" font-size="10" font-weight="700">PLATFORM TOOLS</text>
<rect x="28" y="683" width="100" height="22" rx="2" fill="#0d1f3c" stroke="#d97706" stroke-width="1"/>
<text x="78" y="698" text-anchor="middle" fill="#caf0f8" font-size="10" font-weight="normal">OpenCost</text>
<rect x="136" y="683" width="100" height="22" rx="2" fill="#0d1f3c" stroke="#d97706" stroke-width="1"/>
<text x="186" y="698" text-anchor="middle" fill="#caf0f8" font-size="10" font-weight="normal">Homepage</text>
<rect x="244" y="683" width="100" height="22" rx="2" fill="#0d1f3c" stroke="#d97706" stroke-width="1"/>
<text x="294" y="698" text-anchor="middle" fill="#caf0f8" font-size="10" font-weight="normal">Port (IDP)</text>
<rect x="352" y="683" width="100" height="22" rx="2" fill="#0d1f3c" stroke="#d97706" stroke-width="1"/>
<text x="402" y="698" text-anchor="middle" fill="#caf0f8" font-size="10" font-weight="normal">K8sGPT</text>
<rect x="460" y="683" width="100" height="22" rx="2" fill="#0d1f3c" stroke="#d97706" stroke-width="1"/>
<text x="510" y="698" text-anchor="middle" fill="#caf0f8" font-size="10" font-weight="normal">Ollama</text>
<rect x="568" y="683" width="100" height="22" rx="2" fill="#0d1f3c" stroke="#d97706" stroke-width="1"/>
<text x="618" y="698" text-anchor="middle" fill="#caf0f8" font-size="10" font-weight="normal">Keep</text>
<rect x="676" y="683" width="100" height="22" rx="2" fill="#0d1f3c" stroke="#d97706" stroke-width="1"/>
<text x="726" y="698" text-anchor="middle" fill="#caf0f8" font-size="10" font-weight="normal">Robusta</text>
<rect x="784" y="683" width="100" height="22" rx="2" fill="#0d1f3c" stroke="#d97706" stroke-width="1"/>
<text x="834" y="698" text-anchor="middle" fill="#caf0f8" font-size="10" font-weight="normal">Litmus Chaos</text>
<rect x="20" y="745" width="555" height="78" rx="2" fill="#0d1f3c" stroke="#1e3a5f" stroke-width="1"/>
<text x="30" y="759" text-anchor="start" fill="#48cae4" font-size="9" font-weight="700">LEGEND</text>
<line x1="30" y1="774" x2="60" y2="774" stroke="#3b82f6" stroke-width="1.5" marker-end="url(#arr-blue)" stroke-dasharray="4,2"/>
<text x="65" y="778" text-anchor="start" fill="#caf0f8" font-size="9" font-weight="normal">GitOps sync (dashed)</text>
<line x1="210" y1="774" x2="240" y2="774" stroke="#00b4d8" stroke-width="1.5" marker-end="url(#arr-cyan)"/>
<text x="245" y="778" text-anchor="start" fill="#caf0f8" font-size="9" font-weight="normal">Layer data flow</text>
<line x1="380" y1="774" x2="410" y2="774" stroke="#7c3aed" stroke-width="1.5" marker-end="url(#arr-purple)"/>
<text x="415" y="778" text-anchor="start" fill="#caf0f8" font-size="9" font-weight="normal">Telemetry flow</text>
<rect x="30" y="787" width="100" height="20" rx="2" fill="#0d1f3c" stroke="#f77f00" stroke-width="1"/>
<text x="80" y="801" text-anchor="middle" fill="#caf0f8" font-size="9" font-weight="normal">Component</text>
<text x="140" y="801" text-anchor="start" fill="#fef3c7" font-size="9" font-weight="normal">= eBPF kernel-instrumented</text>
<rect x="745" y="745" width="435" height="80" rx="2" fill="#0d1f3c" stroke="#00b4d8" stroke-width="1"/>
<line x1="745" y1="763" x2="1180" y2="763" stroke="#00b4d8" stroke-width="0.5"/>
<text x="962" y="758" text-anchor="middle" fill="#48cae4" font-size="9" font-weight="normal">SYSTEM ARCHITECTURE</text>
<text x="962" y="785" text-anchor="middle" fill="#ffffff" font-size="15" font-weight="700">PORTEFAIX PLATFORM</text>
<text x="962" y="802" text-anchor="middle" fill="#00b4d8" font-size="10" font-weight="normal">GitOps · eBPF · CNCF · Multi-Cloud</text>
<text x="962" y="818" text-anchor="middle" fill="#48cae4" font-size="9" font-weight="normal">v1.0  ·  2026  ·  Apache 2.0</text>
</svg>
